<svg width="60" height="60" viewBox="0 0 60 60" fill="none" xmlns="http://www.w3.org/2000/svg">
<path d="M25 15C34.665 15 42.5 22.835 42.5 32.5C42.5 33.4365 42.4264 34.3558 42.2848 35.2524L34.2893 27.2595C31.6392 29.9097 30 33.5708 30 37.6149C30 41.4581 31.4805 44.9556 33.9022 47.5681C31.295 49.1135 28.251 50 25 50C15.335 50 7.5 42.165 7.5 32.5C7.5 22.835 15.335 15 25 15ZM25 15L18.5291 13.7058C15.0234 13.0047 12.5 9.92658 12.5 6.35147V5L18.9709 6.29417C22.4766 6.99531 25 10.0734 25 13.6485V17.5M25 15V17.5M25 17.5C25 14.4357 26.7313 11.6343 29.4721 10.2639L30 10M37.4756 30.6863L37.347 30.5576C36.3914 29.6021 35.3722 28.5829 34.2893 27.5C31.6392 30.1502 30 33.8113 30 37.8553C30 38.8332 30.0958 39.7887 30.2787 40.713C30.467 41.6654 30.7478 42.5846 31.1111 43.4609C31.8534 45.2509 32.9404 46.8617 34.2893 48.2107C35.6383 49.5596 37.2491 50.6466 39.0391 51.3889C39.9154 51.7522 40.8346 52.033 41.787 52.2213C42.7113 52.4042 43.6668 52.5 44.6447 52.5C48.6887 52.5 52.3498 50.8608 55 48.2107C53.9171 47.1278 52.8979 46.1086 51.9424 45.153L51.8137 45.0244M37.4756 30.6863C35.6409 32.521 34.506 35.0556 34.506 37.8553M37.4756 30.6863L38.0516 31.2623C38.2826 31.4932 38.5095 31.7202 38.7324 31.9431L40.0224 33.2331C40.2294 33.4401 40.4325 33.6431 40.6315 33.8422L43.3189 36.5296C43.7966 37.0073 44.2386 37.4492 44.6447 37.8553M34.506 37.8553C34.506 43.4547 39.0453 47.994 44.6447 47.994M34.506 37.8553C34.506 38.5323 34.5724 39.1938 34.6989 39.8336L44.6447 37.8553M44.6447 47.994C47.4444 47.994 49.979 46.8591 51.8137 45.0244M44.6447 47.994C43.2698 47.994 41.9588 47.7203 40.7633 47.2244L44.6447 37.8553M51.8137 45.0244L51.2377 44.4484C51.0068 44.2174 50.7798 43.9905 50.5569 43.7676L49.2669 42.4776C49.0599 42.2706 48.8569 42.0675 48.6578 41.8685L45.9704 39.1811C45.4927 38.7034 45.0508 38.2614 44.6447 37.8553" stroke="#8BAA36" stroke-width="2" stroke-linecap="round"/>
</svg>
