<svg width="500" height="326" viewBox="0 0 500 326" fill="none" xmlns="http://www.w3.org/2000/svg">
<path d="M411.067 159.665C411.067 159.665 435.53 162.036 447.922 176.875C447.922 176.875 461.03 159.686 484.554 160.041C490.303 153.256 493.964 145.012 495.11 136.27C496.256 127.528 494.84 118.647 491.027 110.662C487.215 102.677 481.162 95.9153 473.574 91.165C465.986 86.4148 457.175 83.871 448.166 83.8301C439.158 83.7891 430.323 86.2526 422.69 90.9337C415.057 95.6148 408.941 102.321 405.052 110.271C401.164 118.221 399.664 127.089 400.727 135.841C401.79 144.593 405.372 152.869 411.056 159.707L411.067 159.665Z" fill="#8BAA36"/>
<path opacity="0.5" d="M411.067 159.665C411.067 159.665 435.53 162.036 447.922 176.875C447.922 176.875 461.03 159.686 484.554 160.041C490.303 153.256 493.964 145.012 495.11 136.27C496.256 127.528 494.84 118.647 491.027 110.662C487.215 102.677 481.162 95.9153 473.574 91.165C465.986 86.4148 457.175 83.871 448.166 83.8301C439.158 83.7891 430.323 86.2526 422.69 90.9337C415.057 95.6148 408.941 102.321 405.052 110.271C401.164 118.221 399.664 127.089 400.727 135.841C401.79 144.593 405.372 152.869 411.056 159.707L411.067 159.665Z" fill="#FAFAFA"/>
<path d="M447.105 87.1089L446.283 242.225H450.414L447.105 87.1089Z" fill="#B8B8B8"/>
<path d="M448.347 172.353C448.347 172.353 456.598 157.806 471.466 153.357C471.466 153.357 455.776 157.002 447.984 169.523L448.347 172.353Z" fill="#B8B8B8"/>
<path d="M448.347 131.145C448.347 131.145 456.598 116.598 471.466 112.15C471.466 112.15 455.776 115.784 447.984 128.315L448.347 131.145Z" fill="#B8B8B8"/>
<path d="M448.347 151.728C448.347 151.728 456.598 137.181 471.466 132.732C471.466 132.732 455.776 136.377 447.984 148.898L448.347 151.728Z" fill="#B8B8B8"/>
<path d="M447.119 141.641C447.119 141.641 439.146 127.105 424.801 122.656C424.801 122.656 439.947 126.29 447.514 138.822L447.119 141.641Z" fill="#B8B8B8"/>
<path d="M447.119 161.847C447.119 161.847 439.146 147.3 424.801 142.862C424.801 142.862 439.947 146.496 447.514 159.017L447.119 161.847Z" fill="#B8B8B8"/>
<path d="M10.6721 159.666C10.6721 159.666 35.1359 162.036 47.528 176.875C47.528 176.875 60.6351 159.687 84.1596 160.042C89.9086 153.256 93.5692 145.012 94.7152 136.27C95.8612 127.528 94.4454 118.648 90.6327 110.663C86.82 102.677 80.7673 95.9158 73.1793 91.1655C65.5912 86.4152 56.7801 83.8715 47.7717 83.8306C38.7634 83.7896 29.9284 86.2531 22.2956 90.9342C14.6628 95.6153 8.54609 102.321 4.65772 110.272C0.769347 118.222 -0.730721 127.089 0.332169 135.841C1.39506 144.593 4.97718 152.87 10.6615 159.707L10.6721 159.666Z" fill="#8BAA36"/>
<path opacity="0.5" d="M10.6721 159.666C10.6721 159.666 35.1359 162.036 47.528 176.875C47.528 176.875 60.6351 159.687 84.1596 160.042C89.9086 153.256 93.5692 145.012 94.7152 136.27C95.8612 127.528 94.4454 118.648 90.6327 110.663C86.82 102.677 80.7673 95.9158 73.1793 91.1655C65.5912 86.4152 56.7801 83.8715 47.7717 83.8306C38.7634 83.7896 29.9284 86.2531 22.2956 90.9342C14.6628 95.6153 8.54609 102.321 4.65772 110.272C0.769347 118.222 -0.730721 127.089 0.332169 135.841C1.39506 144.593 4.97718 152.87 10.6615 159.707L10.6721 159.666Z" fill="#FAFAFA"/>
<path d="M46.7212 87.1094L45.8887 242.225H50.0193L46.7212 87.1094Z" fill="#B8B8B8"/>
<path d="M47.9723 172.354C47.9723 172.354 56.2229 157.807 71.0912 153.358C71.0912 153.358 55.4011 157.003 47.6094 169.524L47.9723 172.354Z" fill="#B8B8B8"/>
<path d="M47.9723 131.146C47.9723 131.146 56.2229 116.599 71.0912 112.151C71.0912 112.151 55.4011 115.785 47.6094 128.316L47.9723 131.146Z" fill="#B8B8B8"/>
<path d="M47.9723 151.729C47.9723 151.729 56.2229 137.182 71.0912 132.733C71.0912 132.733 55.4011 136.378 47.6094 148.899L47.9723 151.729Z" fill="#B8B8B8"/>
<path d="M46.7305 141.642C46.7305 141.642 38.7574 127.105 24.4121 122.657C24.4121 122.657 39.5579 126.291 47.1255 138.822L46.7305 141.642Z" fill="#B8B8B8"/>
<path d="M46.7305 161.848C46.7305 161.848 38.7574 147.301 24.4121 142.863C24.4121 142.863 39.5579 146.497 47.1255 159.018L46.7305 161.848Z" fill="#B8B8B8"/>
<path d="M311.669 174.702C311.669 174.702 331.692 176.634 341.832 188.779C341.832 188.779 352.559 174.713 371.814 174.995C376.517 169.44 379.511 162.693 380.447 155.539C381.382 148.384 380.222 141.117 377.1 134.583C373.978 128.049 369.023 122.516 362.812 118.63C356.602 114.744 349.39 112.664 342.018 112.632C334.646 112.6 327.416 114.618 321.17 118.45C314.925 122.282 309.92 127.771 306.739 134.277C303.558 140.784 302.331 148.041 303.202 155.203C304.073 162.366 307.005 169.139 311.658 174.734L311.669 174.702Z" fill="#8BAA36"/>
<path opacity="0.5" d="M311.669 174.702C311.669 174.702 331.692 176.634 341.832 188.779C341.832 188.779 352.559 174.713 371.814 174.995C376.517 169.44 379.511 162.693 380.447 155.539C381.382 148.384 380.222 141.117 377.1 134.583C373.978 128.049 369.023 122.516 362.812 118.63C356.602 114.744 349.39 112.664 342.018 112.632C334.646 112.6 327.416 114.618 321.17 118.45C314.925 122.282 309.92 127.771 306.739 134.277C303.558 140.784 302.331 148.041 303.202 155.203C304.073 162.366 307.005 169.139 311.658 174.734L311.669 174.702Z" fill="#FAFAFA"/>
<path d="M341.165 115.262L340.492 242.224H343.876L341.165 115.262Z" fill="#B8B8B8"/>
<path d="M342.183 185.04C342.183 185.04 348.95 173.135 361.107 169.491C361.107 169.491 348.299 172.467 341.895 182.722L342.183 185.04Z" fill="#B8B8B8"/>
<path d="M342.183 151.311C342.183 151.311 348.95 139.406 361.107 135.772C361.107 135.772 348.299 138.748 341.895 148.992L342.183 151.311Z" fill="#B8B8B8"/>
<path d="M342.183 168.175C342.183 168.175 348.95 156.27 361.107 152.626C361.107 152.626 348.299 155.602 341.895 165.857L342.183 168.175Z" fill="#B8B8B8"/>
<path d="M341.18 159.905C341.18 159.905 334.659 148.001 322.918 144.367C322.918 144.367 335.31 147.343 341.511 157.587L341.18 159.905Z" fill="#B8B8B8"/>
<path d="M341.18 176.436C341.18 176.436 334.659 164.531 322.918 160.897C322.918 160.897 335.31 163.873 341.511 174.128L341.18 176.436Z" fill="#B8B8B8"/>
<path d="M117.934 174.703C117.934 174.703 137.958 176.635 148.098 188.78C148.098 188.78 158.771 174.713 178.08 174.995C182.783 169.441 185.776 162.694 186.712 155.539C187.648 148.385 186.487 141.117 183.365 134.583C180.243 128.049 175.289 122.517 169.078 118.631C162.867 114.745 155.656 112.665 148.284 112.633C140.912 112.601 133.682 114.618 127.436 118.45C121.19 122.282 116.186 127.771 113.004 134.278C109.823 140.785 108.597 148.042 109.468 155.204C110.339 162.366 113.271 169.139 117.924 174.734L117.934 174.703Z" fill="#8BAA36"/>
<path opacity="0.5" d="M117.934 174.703C117.934 174.703 137.958 176.635 148.098 188.78C148.098 188.78 158.771 174.713 178.08 174.995C182.783 169.441 185.776 162.694 186.712 155.539C187.648 148.385 186.487 141.117 183.365 134.583C180.243 128.049 175.289 122.517 169.078 118.631C162.867 114.745 155.656 112.665 148.284 112.633C140.912 112.601 133.682 114.618 127.436 118.45C121.19 122.282 116.186 127.771 113.004 134.278C109.823 140.785 108.597 148.042 109.468 155.204C110.339 162.366 113.271 169.139 117.924 174.734L117.934 174.703Z" fill="#FAFAFA"/>
<path d="M147.438 115.263L146.766 242.225H150.149L147.438 115.263Z" fill="#B8B8B8"/>
<path d="M148.507 185.041C148.507 185.041 155.274 173.136 167.431 169.492C167.431 169.492 154.623 172.468 148.219 182.723L148.507 185.041Z" fill="#B8B8B8"/>
<path d="M148.507 151.311C148.507 151.311 155.274 139.407 167.431 135.772C167.431 135.772 154.623 138.749 148.219 148.993L148.507 151.311Z" fill="#B8B8B8"/>
<path d="M148.507 168.176C148.507 168.176 155.274 156.271 167.431 152.626C167.431 152.626 154.623 155.603 148.219 165.857L148.507 168.176Z" fill="#B8B8B8"/>
<path d="M147.439 159.905C147.439 159.905 140.928 148.001 129.188 144.419C129.188 144.419 141.58 147.395 147.781 157.639L147.439 159.905Z" fill="#B8B8B8"/>
<path d="M147.438 176.436C147.438 176.436 140.917 164.532 129.176 160.897C129.176 160.897 141.568 163.874 147.769 174.128L147.438 176.436Z" fill="#B8B8B8"/>
<path d="M18.0332 242.778H478.64" stroke="#22252A" stroke-width="1.04742" stroke-miterlimit="10"/>
<path opacity="0.3" d="M143.798 293.174C143.798 296.306 124.127 298.802 99.8444 298.802C75.562 298.802 55.8906 296.285 55.8906 293.174C55.8906 290.062 75.5727 287.545 99.8444 287.545C124.116 287.545 143.798 290.072 143.798 293.174Z" fill="#8E8F94"/>
<path opacity="0.3" d="M235.814 293.173C235.814 296.306 216.132 298.802 191.86 298.802C167.588 298.802 147.906 296.285 147.906 293.173C147.906 290.061 167.588 287.544 191.86 287.544C216.132 287.544 235.814 290.072 235.814 293.173Z" fill="#8E8F94"/>
<path opacity="0.3" d="M357.711 293.174C357.711 296.306 338.04 298.802 313.768 298.802C289.496 298.802 269.814 296.285 269.814 293.174C269.814 290.062 289.486 287.545 313.768 287.545C338.051 287.545 357.711 290.072 357.711 293.174Z" fill="#EAEAEA"/>
<path opacity="0.3" d="M459.532 293.174C459.532 296.306 439.85 298.802 415.578 298.802C391.307 298.802 371.582 296.285 371.582 293.174C371.582 290.062 391.264 287.545 415.536 287.545C439.807 287.545 459.532 290.072 459.532 293.174Z" fill="#8E8F94"/>
<path d="M318.518 128.515C318.518 128.515 316.714 135.825 316.714 137.057C316.713 137.819 316.627 138.579 316.458 139.323C316.458 139.323 312.605 143.845 313.117 145.098C313.74 146.072 314.632 146.854 315.69 147.354C315.69 147.354 317.739 154.664 319.799 155.144C321.915 155.531 324.054 155.782 326.203 155.896L326.972 161.921L337.239 160.418L334.678 151.374L335.745 143.584C335.745 143.584 337.538 140.326 335.745 135.052C333.952 129.779 330.099 129.528 327.527 129.528C324.508 129.341 321.501 129.003 318.518 128.515Z" fill="#FAFAFA" stroke="#22252A" stroke-width="1.04742" stroke-linecap="round" stroke-linejoin="round"/>
<path d="M323.129 124.755C323.129 124.755 314.142 124.494 314.398 126.76C314.654 129.026 323.897 131.982 323.897 131.982C323.897 131.982 320.813 133.987 322.35 136.002C323.887 138.017 327.484 139.772 327.484 139.772C327.484 139.772 326.416 144.043 328.007 144.294C329.597 144.544 330.568 142.278 330.825 141.526C331.081 140.774 333.909 141.025 334.678 143.03C335.112 144.072 335.372 145.176 335.446 146.299C335.446 146.299 338.531 137.255 339.043 133.235C339.556 129.214 328.007 124.755 323.129 124.755Z" fill="#22252A" stroke="#22252A" stroke-width="1.04742" stroke-linecap="round" stroke-linejoin="round"/>
<path d="M328.824 144.418C328.824 144.418 331.93 137.735 333.787 141.025C335.645 144.314 334.855 147.739 333.03 148.105C331.204 148.47 329.678 148.825 329.678 148.825" fill="#FAFAFA"/>
<path d="M328.824 144.418C328.824 144.418 331.93 137.735 333.787 141.025C335.645 144.314 334.855 147.739 333.03 148.105C331.204 148.47 329.678 148.825 329.678 148.825" stroke="#22252A" stroke-width="1.04742" stroke-linecap="round" stroke-linejoin="round"/>
<path d="M316.2 214.165C315.698 214.74 307.469 232.001 306.444 237.776C305.419 243.551 298.748 277.97 298.482 279.474C298.215 280.978 284.115 283.995 283.08 284.246C282.044 284.497 284.147 287.264 287.189 288.016C290.231 288.768 299.004 292.287 301.064 290.272C303.124 288.256 305.942 276.957 306.711 275.704C307.479 274.451 321.931 241.139 321.931 241.139C321.931 241.139 329.339 225.151 330.876 223.637C332.413 222.123 329.051 215.429 327.759 213.413C326.468 211.398 319.797 210.145 316.2 214.165Z" fill="#22252A" stroke="#22252A" stroke-width="1.04742" stroke-linecap="round" stroke-linejoin="round"/>
<path d="M314.662 214.384C314.662 214.384 318.259 231.217 320.052 237.243C321.731 242.303 324.255 247.057 327.524 251.309C329.584 254.076 339.596 278.46 339.596 278.46L341.133 282.23C341.133 282.23 340.62 283.734 337.802 285.739C334.985 287.744 327.011 291.012 329.071 291.774C331.131 292.537 339.339 292.526 343.193 292.276C346.51 292.046 349.62 290.612 351.913 288.255C353.461 286.49 349.351 281.468 349.351 280.465C349.351 279.463 340.364 248.824 339.852 247.309C339.339 245.795 336.767 235.008 336.767 235.008V222.738C336.767 222.738 338.059 220.482 338.059 215.428C338.059 210.374 334.205 209.392 334.205 209.392L313.146 211.408L314.662 214.384Z" fill="#22252A" stroke="#22252A" stroke-width="1.04742" stroke-linecap="round" stroke-linejoin="round"/>
<path d="M312.875 212.912C312.875 212.912 313.398 217.183 314.935 217.433C316.472 217.684 332.386 221.955 339.324 216.932C339.324 216.932 340.605 213.162 339.836 212.16C339.068 211.157 337.264 211.659 328.031 211.659C318.799 211.659 312.875 211.659 312.875 212.912Z" fill="#8BAA36" stroke="#22252A" stroke-width="1.04742" stroke-linecap="round" stroke-linejoin="round"/>
<path d="M336.474 156.647C336.474 156.647 326.974 157.9 322.865 161.868C318.756 165.837 315.169 173.178 313.376 179.955C311.583 186.732 310.291 211.607 312.853 212.86C315.415 214.113 336.986 215.377 340.604 213.904C344.223 212.432 340.348 200.59 340.348 196.068C340.348 191.546 344.458 176.227 343.689 167.695C342.921 159.164 336.474 156.647 336.474 156.647Z" fill="#8BAA36" stroke="#22252A" stroke-width="1.04742" stroke-linecap="round" stroke-linejoin="round"/>
<path d="M302.197 182.754C302.079 172.416 297.767 163.592 292.035 159.78V157.692L276.239 157.849C267.347 157.943 260.228 169.335 260.41 183.224C260.591 197.113 267.881 208.36 276.783 208.287L292.58 208.13V206.042C298.13 202 302.25 193.093 302.197 182.754Z" fill="#22252A" stroke="#22252A" stroke-width="1.04742" stroke-linecap="round" stroke-linejoin="round"/>
<path d="M309.285 182.681C309.168 171.82 304.888 162.547 298.868 158.516V156.292L292.101 156.365C282.751 156.459 275.311 168.395 275.471 183.025C275.631 197.655 283.327 209.435 292.677 209.341L299.444 209.268V207.054C305.325 202.898 309.403 193.499 309.285 182.681Z" fill="#FAFAFA" stroke="#22252A" stroke-width="1.04742" stroke-linecap="round" stroke-linejoin="round"/>
<path d="M316.075 182.607C316.235 197.227 308.785 209.173 299.446 209.267C290.106 209.361 282.368 197.582 282.24 182.962C282.112 168.343 289.53 156.396 298.869 156.292C308.209 156.187 315.894 167.977 316.075 182.607Z" fill="#737373" stroke="#22252A" stroke-width="1.04742" stroke-linecap="round" stroke-linejoin="round"/>
<path d="M312.196 182.158C312.271 189.082 308.738 194.742 304.308 194.794C299.879 194.846 296.228 189.249 296.154 182.263C296.079 175.276 299.612 169.731 304.041 169.627C308.471 169.522 312.121 175.224 312.196 182.158Z" fill="#22252A" stroke="#22252A" stroke-width="1.04742" stroke-linecap="round" stroke-linejoin="round"/>
<path d="M437.974 234.226C438.855 227.789 439.229 221.295 439.094 214.802C435.625 216.369 415.388 216.943 413.531 216.985C411.674 217.027 391.437 216.369 387.968 214.802C387.815 221.294 388.172 227.787 389.035 234.226C390.434 242.695 402.729 276.602 403.007 278.242C403.367 279.823 403.834 281.379 404.405 282.899C404.405 282.899 397.414 287.817 394.34 289.728C391.266 291.639 393.508 292.464 396.582 292.464C399.656 292.464 406.081 291.639 408.034 291.639C409.763 291.639 412.773 290.167 413.478 289.812C414.182 290.167 417.192 291.639 418.911 291.639C420.875 291.639 427.3 292.464 430.374 292.464C433.448 292.464 435.711 291.639 432.615 289.728C429.52 287.817 422.55 282.899 422.55 282.899C423.122 281.379 423.589 279.823 423.949 278.242C424.279 276.571 436.575 242.663 437.974 234.226Z" fill="#22252A" stroke="#22252A" stroke-width="1.04742" stroke-linecap="round" stroke-linejoin="round"/>
<path d="M409.302 161.638C409.302 161.638 398.49 165.094 392.908 168.561C387.325 172.028 381.722 190.804 381.722 191.535C381.401 192.843 380.965 194.122 380.419 195.357C380.419 195.357 374.827 194.083 373.716 198.636C372.606 203.189 379.299 209.027 382.842 209.215C386.386 209.403 387.496 208.306 387.496 208.306C387.496 208.306 385.265 212.681 386.194 214.499C387.122 216.316 394.957 223.072 410.423 222.853C425.889 222.633 437.107 220.117 438.74 217.934C440.373 215.752 440.608 211.188 440.608 211.188C440.608 211.188 446.382 209.726 448.431 206.082C450.481 202.437 450.107 198.605 448.986 194.783C447.866 190.961 442.091 179.86 438.185 173.657C434.278 167.454 426.07 163.998 422.174 162.901C418.279 161.805 411.906 161.638 409.302 161.638Z" fill="#8BAA36" stroke="#22252A" stroke-width="1.04742" stroke-linecap="round" stroke-linejoin="round"/>
<path d="M412.579 176.989C414.127 176.488 418.983 172.269 420.851 168.05C421.59 166.435 422.11 164.732 422.399 162.985L422.153 162.912C418.247 161.816 411.907 161.638 409.345 161.638C409.345 161.638 407.082 162.359 404.094 163.476C404.112 165.733 404.546 167.969 405.375 170.076C407.061 174.295 411.074 177.501 412.579 176.989Z" fill="#FAFAFA" stroke="#22252A" stroke-width="1.04742" stroke-linecap="round" stroke-linejoin="round"/>
<path d="M430.35 185.51C430.35 185.51 434.822 208.85 439.892 211.251" stroke="#22252A" stroke-width="1.04742" stroke-linecap="round" stroke-linejoin="round"/>
<path d="M387.496 208.307C387.496 208.307 393.089 187.703 393.463 185.698" stroke="#22252A" stroke-width="1.04742" stroke-linecap="round" stroke-linejoin="round"/>
<path d="M437.572 196.057C437.572 196.057 434.477 196.736 434.477 198.929" stroke="#22252A" stroke-width="1.04742" stroke-linecap="round" stroke-linejoin="round"/>
<path d="M384.99 196.391C384.99 196.391 388.438 198.584 388.096 201.957" stroke="#22252A" stroke-width="1.04742" stroke-linecap="round" stroke-linejoin="round"/>
<path d="M408.086 291.659C409.816 291.659 412.825 290.187 413.53 289.832C414.234 290.187 417.244 291.659 418.963 291.659C420.927 291.659 427.352 292.484 430.426 292.484C433.5 292.484 435.763 291.659 432.668 289.748C429.989 288.088 424.374 284.161 422.944 283.159C419.646 286.103 413.124 285.372 413.124 285.372C411.803 285.178 410.495 284.906 409.207 284.558C407.254 284.005 404.457 282.918 404.457 282.918C404.457 282.918 397.466 287.837 394.392 289.748C391.318 291.659 393.56 292.484 396.634 292.484C399.708 292.484 406.133 291.659 408.086 291.659Z" fill="#8BAA36" stroke="#22252A" stroke-width="1.04742" stroke-linecap="round" stroke-linejoin="round"/>
<path d="M413.117 282.96V235.279" stroke="#FAFAFA" stroke-width="1.04742" stroke-linecap="round" stroke-linejoin="round"/>
<path d="M413.523 289.779L413.117 285.319V282.959" stroke="#22252A" stroke-width="1.04742" stroke-linecap="round" stroke-linejoin="round"/>
<path d="M409.199 233.64H417.3" stroke="#FAFAFA" stroke-width="1.04742" stroke-linecap="round" stroke-linejoin="round"/>
<path d="M398.614 134.279C398.614 134.279 392.807 137.683 393.672 140.669C394.536 143.656 397.162 144.23 396.586 145.891C396.009 147.551 393.992 148.595 396.287 149.64C397.594 150.212 398.961 150.643 400.364 150.924C400.364 150.924 402.499 158.171 406.171 159.445C409.842 160.719 416.204 159.874 420.708 159.31C422.229 159.164 423.67 158.568 424.837 157.602C426.003 156.636 426.842 155.344 427.24 153.9C427.678 152.344 425.351 154.193 424.187 152.48C423.024 150.768 424.775 146.371 426.077 142.528C427.379 138.685 423.462 131.438 418.381 129.026C413.3 126.614 403.598 127.877 398.614 134.279Z" fill="#22252A" stroke="#22252A" stroke-width="1.04742" stroke-linecap="round" stroke-linejoin="round"/>
<path d="M408.375 159.038C407.637 161.421 407.136 163.87 406.881 166.348C406.689 169.481 409.304 172.916 412.1 172.728C414.897 172.54 417.309 167.079 417.683 164.374C418.056 161.669 416.754 154.349 416.754 154.349C416.754 154.349 412.485 154.537 410.788 155.989C409.791 156.844 408.972 157.879 408.375 159.038Z" fill="#FAFAFA" stroke="#22252A" stroke-width="1.04742" stroke-linecap="round" stroke-linejoin="round"/>
<path d="M404.585 138.257C404.585 138.257 404.723 142.518 409.089 146.611C411.713 149.094 414.825 151.03 418.236 152.303C418.16 153.236 417.914 154.148 417.51 154.997C417.321 155.352 417.025 155.642 416.663 155.828C416.3 156.015 415.889 156.089 415.482 156.041H414.02C414.02 156.041 411.885 160.939 409.302 161.649C406.719 162.359 400.369 161.868 399.493 155.613C398.618 149.358 398.479 144.241 399.205 142.957C399.931 141.672 404.585 138.257 404.585 138.257Z" fill="#FAFAFA" stroke="#22252A" stroke-width="1.04742" stroke-linecap="round" stroke-linejoin="round"/>
<path d="M450.25 193.29C450.912 191.984 451.314 190.566 451.435 189.113C451.435 187.212 447.827 184.487 447.165 183.808C446.504 183.129 445.842 183.202 445.703 184.153C445.701 184.686 445.811 185.214 446.026 185.705C446.241 186.195 446.556 186.637 446.952 187.003C447.493 187.421 447.885 187.995 448.073 188.643C448.137 189.113 446.877 191.421 447.507 192.914C448.137 194.407 449.909 194.856 450.25 193.29Z" fill="#FAFAFA" stroke="#22252A" stroke-width="1.04742" stroke-linecap="round" stroke-linejoin="round"/>
<path d="M305.707 182.628C305.707 182.628 321.419 187.546 330.865 199.033C340.311 210.52 346.512 208.87 358.253 205.048C369.994 201.226 374.466 187.546 390.679 199.033C406.892 210.52 410.244 214.885 423.661 208.327C437.077 201.769 444.335 185.907 456.642 191.368C468.949 196.83 463.345 224.785 464.466 238.361C465.586 251.936 463.9 285.948 466.696 290.323C469.493 294.699 498.002 291.368 498.002 291.368" stroke="#22252A" stroke-width="3.14226" stroke-linecap="round" stroke-linejoin="round"/>
<path d="M335.132 164.375C335.132 164.375 332.005 159.384 327.394 160.689C322.516 162.067 319.997 168.886 318.855 173.137C317.713 177.387 316.944 181.981 314.852 185.939C314.852 185.939 305.609 185.783 300.454 184.321C296.52 183.121 292.651 181.727 288.862 180.144C288.862 180.144 287.037 177.648 285.745 177.157C284.454 176.666 281.102 175.705 280.857 176.457C280.611 177.209 284.742 179.684 284.742 179.684C284.742 179.684 277.057 180.728 276.289 181.532C275.52 182.337 281.721 184.738 281.721 184.738C281.721 184.738 284.038 185.469 289.673 184.154C289.673 184.154 310.348 196.998 314.468 198.471C318.588 199.943 320.872 200.413 323.679 195.108C326.486 189.803 335.804 176.645 337.288 171.351" fill="#8BAA36"/>
<path d="M335.132 164.375C335.132 164.375 332.005 159.384 327.394 160.689C322.516 162.067 319.997 168.886 318.855 173.137C317.713 177.387 316.944 181.981 314.852 185.939C314.852 185.939 305.609 185.783 300.454 184.321C296.52 183.121 292.651 181.727 288.862 180.144C288.862 180.144 287.037 177.648 285.745 177.157C284.454 176.666 281.102 175.705 280.857 176.457C280.611 177.209 284.742 179.684 284.742 179.684C284.742 179.684 277.057 180.728 276.289 181.532C275.52 182.337 281.721 184.738 281.721 184.738C281.721 184.738 284.038 185.469 289.673 184.154C289.673 184.154 310.348 196.998 314.468 198.471C318.588 199.943 320.872 200.413 323.679 195.108C326.486 189.803 335.804 176.645 337.288 171.351" stroke="#22252A" stroke-width="1.04742" stroke-linecap="round" stroke-linejoin="round"/>
<path d="M294.23 182.274C291.209 181.167 288.893 180.185 288.893 180.185C288.893 180.185 287.068 177.689 285.777 177.198C284.485 176.708 281.134 175.747 280.888 176.499C280.643 177.251 284.773 179.726 284.773 179.726C284.773 179.726 277.088 180.77 276.32 181.574C275.551 182.378 281.753 184.78 281.753 184.78C281.753 184.78 284.069 185.511 289.705 184.195L292.597 185.981L294.23 182.274Z" fill="#FAFAFA" stroke="#22252A" stroke-width="1.04742" stroke-linecap="round" stroke-linejoin="round"/>
<path d="M373.915 195.211C373.253 193.905 372.851 192.487 372.73 191.034C372.73 189.134 376.349 186.418 377 185.74C377.651 185.061 378.313 185.134 378.452 186.084C378.453 186.618 378.344 187.146 378.129 187.636C377.914 188.127 377.599 188.569 377.203 188.935C376.662 189.352 376.27 189.926 376.082 190.575C376.018 191.034 377.277 193.352 376.648 194.846C376.018 196.339 374.257 196.767 373.915 195.211Z" fill="#FAFAFA" stroke="#22252A" stroke-width="1.04742" stroke-linecap="round" stroke-linejoin="round"/>
<path d="M376.402 189.478C376.402 189.478 373.424 194.856 375.153 196.788C376.882 198.72 378.558 192.444 378.878 190.711C379.198 188.977 377.501 187.233 376.402 189.478Z" fill="#FAFAFA" stroke="#22252A" stroke-width="1.04742" stroke-linecap="round" stroke-linejoin="round"/>
<path d="M378.855 191.41C378.855 191.41 375.877 196.788 377.606 198.72C379.335 200.652 381.011 194.376 381.331 192.642C381.652 190.909 379.954 189.102 378.855 191.41Z" fill="#FAFAFA" stroke="#22252A" stroke-width="1.04742" stroke-linecap="round" stroke-linejoin="round"/>
<path d="M381.562 191.86C381.562 191.86 378.584 197.238 380.313 199.17C382.042 201.102 383.718 194.826 384.038 193.092C384.359 191.359 382.661 189.604 381.562 191.86Z" fill="#FAFAFA" stroke="#22252A" stroke-width="1.04742" stroke-linecap="round" stroke-linejoin="round"/>
<path d="M385.017 191.9C385.017 191.9 382.242 196.077 383.757 197.654C385.273 199.231 386.906 194.271 387.226 192.84C387.547 191.409 386.042 190.02 385.017 191.9Z" fill="#FAFAFA" stroke="#22252A" stroke-width="1.04742" stroke-linecap="round" stroke-linejoin="round"/>
<path d="M448.274 189.688C448.274 189.688 451.252 195.066 449.522 196.998C447.793 198.93 446.118 192.644 445.797 190.91C445.477 189.177 447.174 187.433 448.274 189.688Z" fill="#FAFAFA" stroke="#22252A" stroke-width="1.04742" stroke-linecap="round" stroke-linejoin="round"/>
<path d="M445.822 191.567C445.822 191.567 448.8 196.945 447.071 198.877C445.342 200.809 443.666 194.522 443.346 192.789C443.026 191.055 444.723 189.322 445.822 191.567Z" fill="#FAFAFA" stroke="#22252A" stroke-width="1.04742" stroke-linecap="round" stroke-linejoin="round"/>
<path d="M443.096 192.068C443.096 192.068 446.074 197.446 444.345 199.378C442.616 201.31 440.94 195.034 440.631 193.29C440.321 191.546 442.029 189.813 443.096 192.068Z" fill="#FAFAFA" stroke="#22252A" stroke-width="1.04742" stroke-linecap="round" stroke-linejoin="round"/>
<path d="M439.653 192.11C439.653 192.11 442.428 196.339 440.912 197.864C439.396 199.388 437.763 194.48 437.454 193.049C437.144 191.619 438.628 190.23 439.653 192.11Z" fill="#FAFAFA" stroke="#22252A" stroke-width="1.04742" stroke-linecap="round" stroke-linejoin="round"/>
<path d="M72.4331 251.612V257.543C70.3292 259.793 68.8163 262.51 68.0249 265.459C66.7334 270.304 62.6881 291.158 63.7555 291.701C64.8228 292.244 74.8667 294.49 78.0687 294.02C81.7405 293.477 84.8678 293.665 83.0213 291.681C81.1748 289.696 71.4725 284.151 71.4725 284.151C71.4725 284.151 82.146 269.051 84.5156 263.475C86.8851 257.898 87.2694 249.273 87.2694 249.273L72.9454 248.74L72.4331 251.612Z" fill="#FAFAFA" stroke="#22252A" stroke-width="1.04742" stroke-linecap="round" stroke-linejoin="round"/>
<path d="M78.0695 294.019C81.7412 293.476 84.8686 293.664 83.022 291.68C81.1755 289.696 71.4732 284.151 71.4732 284.151L71.1103 286.302L64.1192 285.467C63.6068 288.955 63.3827 291.513 63.7562 291.732C64.8983 292.234 74.8674 294.489 78.0695 294.019Z" fill="#22252A" stroke="#22252A" stroke-width="1.04742" stroke-linecap="round" stroke-linejoin="round"/>
<path d="M107.521 254.682L109.175 257.564C108.489 258.858 108.086 260.277 107.99 261.731C107.895 263.185 108.109 264.643 108.62 266.012C110.274 271.045 114.138 289.56 114.138 290.636C114.138 291.712 116.518 292.432 118.408 292.432C120.297 292.432 125.527 292.787 126.263 292.787C127 292.787 132.326 293.685 134.162 292.61C135.998 291.534 131.824 289.372 129.071 288.119C126.317 286.866 120.254 283.629 120.254 283.629C120.254 283.629 121.716 268.884 121.716 262.409C121.716 255.935 123.189 253.784 121.172 249.826C119.155 245.868 106.475 251.633 106.475 251.633L107.521 254.682Z" fill="#FAFAFA" stroke="#22252A" stroke-width="1.04742" stroke-linecap="round" stroke-linejoin="round"/>
<path d="M129.014 288.12C126.26 286.856 120.198 283.629 120.198 283.629L119.461 286.324L113.559 287.368C113.911 289.164 114.135 290.396 114.135 290.647C114.135 291.691 116.515 292.443 118.404 292.443C120.294 292.443 125.524 292.798 126.26 292.798C126.997 292.798 132.323 293.696 134.159 292.621C135.994 291.545 131.768 289.373 129.014 288.12Z" fill="#22252A" stroke="#22252A" stroke-width="1.04742" stroke-linecap="round" stroke-linejoin="round"/>
<path d="M97.6207 135.02C96.1804 132.612 94.5344 130.328 92.7002 128.191C90.1706 125.403 82.2401 125.559 78.7605 129.235C75.281 132.911 76.3803 139.469 77.6932 141.328C79.006 143.187 81.6531 151.875 81.6531 151.875L82.2828 158.078L97.023 163.195L94.0131 153.118C94.0131 153.118 99.7234 152.073 100.193 150.329C100.663 148.585 99.2431 142.727 99.2431 142.727C99.2431 142.727 101.143 141.484 100.983 140.398C100.823 139.312 97.6207 135.02 97.6207 135.02Z" fill="#FAFAFA" stroke="#22252A" stroke-width="1.04742" stroke-linecap="round" stroke-linejoin="round"/>
<path d="M80.6602 141.706C80.6602 141.706 83.1791 143.794 84.556 141.403C85.9329 139.012 86.9789 136.672 86.9789 134.647C86.9789 132.621 81.8022 130.939 85.2498 129.582C88.6973 128.224 91.1843 131.242 92.7213 128.214C94.2583 125.186 92.86 124.862 84.5774 124.862C76.2947 124.862 72.1533 128.914 73.9038 133.978C75.3038 137.719 77.0359 141.332 79.0805 144.776L80.6602 141.706Z" fill="#22252A" stroke="#22252A" stroke-width="1.04742" stroke-linecap="round" stroke-linejoin="round"/>
<path d="M98.0838 138.603C98.0838 139.369 97.8516 140.118 97.4165 140.755C96.9814 141.392 96.3629 141.889 95.6393 142.182C94.9158 142.475 94.1196 142.552 93.3514 142.403C92.5833 142.253 91.8777 141.884 91.3239 141.342C90.7701 140.8 90.3929 140.11 90.2402 139.359C90.0874 138.607 90.1658 137.828 90.4655 137.12C90.7652 136.412 91.2728 135.807 91.924 135.381C92.5752 134.956 93.3408 134.729 94.124 134.729C95.1742 134.729 96.1814 135.137 96.924 135.863C97.6666 136.59 98.0838 137.575 98.0838 138.603Z" stroke="#22252A" stroke-width="1.04742" stroke-linecap="round" stroke-linejoin="round"/>
<path d="M97.5234 135.167C97.9842 134.983 98.4771 134.887 98.975 134.885C99.7996 134.887 100.6 135.156 101.252 135.65C101.903 136.145 102.369 136.837 102.575 137.618C102.781 138.399 102.717 139.225 102.392 139.966C102.067 140.708 101.499 141.323 100.779 141.715" stroke="#22252A" stroke-width="1.04742" stroke-linecap="round" stroke-linejoin="round"/>
<path d="M90.1762 138.603L80.666 141.704" stroke="#22252A" stroke-width="1.04742" stroke-linecap="round" stroke-linejoin="round"/>
<path d="M83.4018 143.719C83.4018 143.719 81.5019 139.845 79.602 140.586C77.7021 141.328 78.6521 147.416 80.552 148.032C81.1904 148.173 81.854 148.162 82.4872 148C83.1204 147.838 83.7049 147.531 84.1916 147.103C84.1916 147.103 85.782 150.361 87.6819 151.28" fill="#FAFAFA"/>
<path d="M83.4018 143.719C83.4018 143.719 81.5019 139.845 79.602 140.586C77.7021 141.328 78.6521 147.416 80.552 148.032C81.1904 148.173 81.854 148.162 82.4872 148C83.1204 147.838 83.7049 147.531 84.1916 147.103C84.1916 147.103 85.782 150.361 87.6819 151.28" stroke="#22252A" stroke-width="1.04742" stroke-linecap="round" stroke-linejoin="round"/>
<path d="M70.9276 213.341L69.7428 228.19L66.1992 250.172C66.1992 250.172 74.4819 256.532 82.2096 256.532C89.9372 256.532 92.0613 255.571 92.0613 255.571L96.3947 233.015L100.728 256.73C100.728 256.73 109.267 255.383 114.924 254.026C118.858 252.955 122.586 251.261 125.961 249.013L114.529 219.899L112.053 204.882C112.053 204.882 99.2446 206.041 91.5489 206.428C83.8533 206.814 73.6173 204.882 73.6173 204.882L70.9276 213.341Z" fill="#8BAA36" stroke="#22252A" stroke-width="1.04742" stroke-linecap="round" stroke-linejoin="round"/>
<path d="M79.0572 154.006C79.0572 154.006 97.2023 160.198 102.806 166.213C105.901 169.555 109.37 192.424 110.619 198.011C111.868 203.598 114.045 214.72 114.045 214.72C114.045 214.72 102.977 219.607 94.4165 219.784C85.8563 219.962 69.4297 216.119 69.4297 216.119C69.4297 216.119 71.3829 191.338 71.3829 179.82C71.3829 168.302 71.5644 160.783 73.5177 157.118C73.5283 157.149 76.7411 153.651 79.0572 154.006Z" fill="#22252A" stroke="#22252A" stroke-width="1.04742" stroke-linecap="round" stroke-linejoin="round"/>
<path d="M74.2721 217.915C74.2721 217.915 75.2541 234.111 74.2721 240.095C73.5826 243.955 72.3917 247.714 70.7285 251.279" stroke="#22252A" stroke-width="1.04742" stroke-linecap="round" stroke-linejoin="round"/>
<path d="M74.6836 225.631C76.1656 225.133 77.4899 224.267 78.5265 223.117C79.5632 221.968 80.2766 220.574 80.5967 219.073" stroke="#22252A" stroke-width="1.04742" stroke-linecap="round" stroke-linejoin="round"/>
<path d="M67.1797 247.039C67.1797 247.039 77.0421 255.331 92.412 252.26" stroke="#22252A" stroke-width="1.04742" stroke-linecap="round" stroke-linejoin="round"/>
<path d="M100.297 251.852C100.297 251.852 116.457 250.118 123.555 245.492" stroke="#22252A" stroke-width="1.04742" stroke-linecap="round" stroke-linejoin="round"/>
<path d="M172.583 146.508C172.583 146.508 171.025 147.636 165.592 151.52C160.159 155.405 164.439 161.274 164.439 161.274C164.439 161.274 160.554 161.869 155.366 167.205C150.179 172.541 157.683 181.7 164.695 183.13C171.708 184.561 179.905 176.071 182.36 168.197C184.815 160.323 181.57 148.45 179.937 145.996C178.304 143.542 172.583 146.508 172.583 146.508Z" fill="#22252A" stroke="#22252A" stroke-width="1.04742" stroke-linecap="round" stroke-linejoin="round"/>
<path d="M193.155 145.463C193.155 145.463 195.855 141.38 193.411 135.459C190.967 129.538 183.666 126.833 176.557 131.125C174.188 132.505 172.35 134.611 171.33 137.116C170.309 139.622 170.162 142.387 170.911 144.983C171.605 147.719 175.106 151.927 175.842 151.99C176.579 152.053 182.972 154.329 187.338 152.335C191.703 150.34 193.155 145.463 193.155 145.463Z" fill="#22252A" stroke="#22252A" stroke-width="1.04742" stroke-linecap="round" stroke-linejoin="round"/>
<path d="M161.754 283.306C161.754 283.306 166.824 291.023 175.63 292.338C184.435 293.654 176.515 285.927 175.032 284.757C173.548 283.587 162.949 281.06 161.754 283.306Z" fill="#737373" stroke="#22252A" stroke-width="1.04742" stroke-linecap="round" stroke-linejoin="round"/>
<path d="M208.662 285.289C208.662 285.289 218.342 287.618 217.595 289.664C216.848 291.711 208.96 291.555 204.349 290.385C199.738 289.215 195.405 287.472 196.003 285.581C196.6 283.691 208.662 285.289 208.662 285.289Z" fill="#737373" stroke="#22252A" stroke-width="1.04742" stroke-linecap="round" stroke-linejoin="round"/>
<path d="M181.138 160.814C181.138 160.814 168.18 162.673 165.811 167.153C163.441 171.633 166.782 196.037 166.782 196.037C166.782 196.037 161.253 207.973 161.178 215.659C161.104 223.345 164.605 236.868 164.327 240.241C164.049 243.614 160.506 282.012 160.506 283.056C160.506 284.1 167.977 286.439 178.747 287.693C189.517 288.946 210.117 285.197 210.117 285.197C210.117 285.197 209.711 262.536 210.789 249.023C211.867 235.51 210.33 223.366 207.587 218.322C204.844 213.278 192.068 195.118 192.068 195.118C192.068 195.118 198.258 184.132 198.643 179.329C199.027 174.525 197.031 172.019 192.356 166.495C190.966 164.865 189.258 163.523 187.332 162.548C185.406 161.572 183.3 160.983 181.138 160.814Z" fill="#8BAA36" stroke="#22252A" stroke-width="1.04742" stroke-linecap="round" stroke-linejoin="round"/>
<path d="M192.089 195.128C192.089 195.128 198.28 184.142 198.664 179.339C199.048 174.535 197.052 172.029 192.377 166.504C192.153 166.233 191.919 165.993 191.684 165.742L191.513 165.899C186.71 173.574 170.828 186.69 166.099 190.512C166.462 193.781 166.772 196.036 166.772 196.036C166.772 196.036 161.243 207.972 161.168 215.658C161.256 219.16 161.613 222.651 162.235 226.101C173.453 219.835 188.46 208.108 196.583 201.571C194.043 197.895 192.089 195.128 192.089 195.128Z" fill="#737373" stroke="#22252A" stroke-width="1.04742" stroke-linecap="round" stroke-linejoin="round"/>
<path d="M178.746 151.854C179.104 154.719 179.3 157.603 179.333 160.49C179.162 162.63 179.867 167.518 183.603 169.053C187.338 170.588 189.687 168.447 189.676 166.296C189.54 164.519 189.182 162.765 188.608 161.074L188.715 155.174C188.715 155.174 182.268 151.227 178.746 151.854Z" fill="#FAFAFA" stroke="#22252A" stroke-width="1.04742" stroke-linecap="round" stroke-linejoin="round"/>
<path d="M175.395 148.022C175.395 148.022 172.652 145.662 172.566 149.066C172.481 152.47 175.683 153.598 176.387 153.828C176.982 153.907 177.585 153.761 178.074 153.421C178.074 153.421 183.048 157.598 187.04 157.869C191.031 158.141 192.654 156.334 193.593 149.244C194.532 142.153 187.05 134.958 187.05 134.958C187.05 134.958 180.646 146.508 175.395 148.022Z" fill="#FAFAFA" stroke="#22252A" stroke-width="1.04742" stroke-linecap="round" stroke-linejoin="round"/>
<path d="M114.354 214.573C114.318 213.363 114.52 212.157 114.952 211.022C115.613 209.602 119.221 208.788 120.022 208.516C120.822 208.245 121.228 208.516 120.993 209.257C120.806 209.656 120.539 210.013 120.207 210.308C119.874 210.602 119.485 210.828 119.061 210.97C118.509 211.1 118.012 211.396 117.641 211.816C117.439 212.15 117.567 214.291 116.574 215.199C115.581 216.108 114.023 215.857 114.354 214.573Z" fill="#FAFAFA" stroke="#22252A" stroke-width="1.04742" stroke-linecap="round" stroke-linejoin="round"/>
<path d="M196.147 183.171C196.147 183.171 183.338 181.532 177.692 190.283C172.046 199.034 161.49 229.652 141.925 234.58C122.36 239.509 116.767 200.12 105.027 201.216C93.8406 202.26 86.0276 201.216 79.3139 213.246C75.7276 219.689 57.796 290.042 49.3212 290.762C22.3277 293.07 4.95117 291.566 4.95117 291.566" stroke="#22252A" stroke-width="3.14226" stroke-linecap="round" stroke-linejoin="round"/>
<path d="M79.894 154.507C79.894 154.507 76.9375 153.348 72.9882 155.656C69.039 157.963 58.4082 183.235 59.198 185.939C59.9878 188.644 71.2164 193.657 77.5245 195.39C83.8326 197.124 95.264 199.254 95.264 199.254C95.264 199.254 98.8076 204.653 99.9923 204.841C101.715 204.818 103.432 204.625 105.116 204.266C105.116 204.266 107.25 206 108.072 204.068C108.894 202.136 107.282 199.64 105.511 197.708C103.739 195.776 96.2459 194.816 96.2459 194.816L75.9341 181.115L84.473 165.691" fill="#22252A"/>
<path d="M79.894 154.507C79.894 154.507 76.9375 153.348 72.9882 155.656C69.039 157.963 58.4082 183.235 59.198 185.939C59.9878 188.644 71.2164 193.657 77.5245 195.39C83.8326 197.124 95.264 199.254 95.264 199.254C95.264 199.254 98.8076 204.653 99.9923 204.841C101.715 204.818 103.432 204.625 105.116 204.266C105.116 204.266 107.25 206 108.072 204.068C108.894 202.136 107.282 199.64 105.511 197.708C103.739 195.776 96.2459 194.816 96.2459 194.816L75.9341 181.115L84.473 165.691" stroke="#22252A" stroke-width="1.04742" stroke-linecap="round" stroke-linejoin="round"/>
<path d="M99.9929 204.83C101.716 204.807 103.432 204.614 105.116 204.255C105.116 204.255 107.251 205.989 108.073 204.057C108.895 202.125 107.283 199.629 105.511 197.697C103.739 195.765 96.2465 194.805 96.2465 194.805L75.9347 181.114L78.966 175.59C71.3771 170.964 66.3391 171.309 63.6174 172.238C60.8956 178.629 58.8249 184.686 59.1878 185.928C59.9777 188.633 71.2063 193.646 77.5144 195.379C83.8224 197.112 95.2538 199.243 95.2538 199.243C95.2538 199.243 98.8081 204.642 99.9929 204.83Z" fill="#FAFAFA" stroke="#22252A" stroke-width="1.04742" stroke-linecap="round" stroke-linejoin="round"/>
<path d="M226.939 183.599C226.074 174.483 221.602 166.995 216.265 164.019L216.095 162.16L202.155 163.424C194.31 164.134 188.898 174.67 190.062 186.951C191.225 199.232 198.526 208.599 206.371 207.836L220.311 206.573L220.129 204.714C224.825 200.871 227.803 192.715 226.939 183.599Z" fill="#22252A" stroke="#22252A" stroke-width="1.04742" stroke-linecap="round" stroke-linejoin="round"/>
<path d="M233.254 183.057C232.347 173.481 227.917 165.597 222.271 162.464L222.079 160.511L216.112 161.054C207.872 161.806 202.183 172.865 203.4 185.772C204.617 198.679 212.302 208.527 220.542 207.775L226.509 207.232L226.327 205.279C231.258 201.165 234.161 192.602 233.254 183.057Z" fill="#FAFAFA" stroke="#22252A" stroke-width="1.04742" stroke-linecap="round" stroke-linejoin="round"/>
<path d="M239.229 182.482C240.457 195.389 234.768 206.448 226.517 207.2C218.266 207.952 210.592 198.094 209.343 185.197C208.094 172.301 213.805 161.179 222.045 160.48C230.285 159.78 237.991 169.586 239.229 182.482Z" fill="#FAFAFA" stroke="#22252A" stroke-width="1.04742" stroke-linecap="round" stroke-linejoin="round"/>
<path d="M245.636 174.942L222.485 177.031C222.16 177.061 221.833 177.028 221.521 176.934C221.21 176.84 220.92 176.687 220.669 176.483C220.418 176.28 220.211 176.029 220.059 175.747C219.907 175.465 219.814 175.156 219.785 174.838C219.754 174.52 219.787 174.2 219.883 173.895C219.979 173.59 220.136 173.307 220.344 173.062C220.553 172.816 220.808 172.613 221.097 172.465C221.386 172.316 221.701 172.225 222.026 172.196L245.177 170.108C245.502 170.077 245.829 170.11 246.141 170.204C246.452 170.298 246.742 170.451 246.993 170.655C247.244 170.859 247.451 171.109 247.603 171.392C247.755 171.674 247.848 171.983 247.877 172.3C247.908 172.618 247.875 172.939 247.779 173.243C247.683 173.548 247.526 173.832 247.318 174.077C247.109 174.323 246.854 174.525 246.565 174.674C246.276 174.822 245.961 174.914 245.636 174.942Z" fill="#737373" stroke="#22252A" stroke-width="1.04742" stroke-linecap="round" stroke-linejoin="round"/>
<path d="M247.347 192.893L224.196 194.982C223.871 195.012 223.544 194.979 223.232 194.885C222.921 194.791 222.631 194.638 222.38 194.434C222.129 194.23 221.922 193.98 221.77 193.698C221.618 193.416 221.525 193.107 221.495 192.789C221.465 192.471 221.498 192.151 221.594 191.846C221.69 191.541 221.847 191.258 222.055 191.012C222.263 190.767 222.519 190.564 222.808 190.416C223.096 190.267 223.412 190.176 223.737 190.147L246.888 188.058C247.542 188.003 248.193 188.202 248.698 188.613C249.204 189.023 249.523 189.612 249.588 190.251C249.619 190.569 249.586 190.889 249.49 191.194C249.393 191.499 249.237 191.782 249.029 192.028C248.82 192.273 248.565 192.476 248.276 192.625C247.987 192.773 247.672 192.865 247.347 192.893Z" fill="#737373" stroke="#22252A" stroke-width="1.04742" stroke-linecap="round" stroke-linejoin="round"/>
<path d="M173.135 162.516C173.135 162.516 167.563 163.56 164.927 166.693C162.29 169.826 156.879 194.001 158.128 196.779C159.376 199.556 179.389 203.044 185.569 203.545C190.539 203.738 195.516 203.521 200.448 202.898C200.448 202.898 205.785 202.762 207.247 202.522C208.71 202.282 211.399 200.872 211.442 200.339C211.485 199.807 211.218 198.533 209.222 198.376C207.226 198.22 202.946 196.82 202.402 196.779C203.684 196.449 204.985 196.191 206.297 196.006C206.297 196.006 206.575 194.962 204.376 194.962C202.177 194.962 200.182 194.815 199.349 196.006C198.754 196.933 198.246 197.912 197.833 198.93C197.833 198.93 185.505 199.776 178.813 196.58C172.121 193.385 170.007 192.32 170.007 192.32L174.81 173.523" fill="#8BAA36"/>
<path d="M173.135 162.516C173.135 162.516 167.563 163.56 164.927 166.693C162.29 169.826 156.879 194.001 158.128 196.779C159.376 199.556 179.389 203.044 185.569 203.545C190.539 203.738 195.516 203.521 200.448 202.898C200.448 202.898 205.785 202.762 207.247 202.522C208.71 202.282 211.399 200.872 211.442 200.339C211.485 199.807 211.218 198.533 209.222 198.376C207.226 198.22 202.946 196.82 202.402 196.779C203.684 196.449 204.985 196.191 206.297 196.006C206.297 196.006 206.575 194.962 204.376 194.962C202.177 194.962 200.182 194.815 199.349 196.006C198.754 196.933 198.246 197.912 197.833 198.93C197.833 198.93 185.505 199.776 178.813 196.58C172.121 193.385 170.007 192.32 170.007 192.32L174.81 173.523" stroke="#22252A" stroke-width="1.04742" stroke-linecap="round" stroke-linejoin="round"/>
<path d="M207.218 202.553C208.702 202.313 211.37 200.903 211.413 200.371C211.456 199.838 211.189 198.564 209.193 198.408C207.197 198.251 202.917 196.852 202.373 196.81C203.655 196.48 204.956 196.222 206.268 196.037C206.268 196.037 206.546 194.993 204.347 194.993C202.148 194.993 200.153 194.847 199.32 196.037C198.725 196.964 198.217 197.943 197.804 198.961C197.804 198.961 185.476 199.807 178.784 196.611C172.092 193.416 169.978 192.351 169.978 192.351L172.903 180.864C169.096 179.331 165.078 178.356 160.981 177.971C158.985 185.845 157.352 195.118 158.099 196.768C159.337 199.546 179.36 203.034 185.54 203.535C190.51 203.727 195.487 203.511 200.419 202.887C200.419 202.887 205.767 202.793 207.218 202.553Z" fill="#FAFAFA" stroke="#22252A" stroke-width="1.04742" stroke-linecap="round" stroke-linejoin="round"/>
<path d="M117.052 212.546C117.052 212.546 112.932 215.564 113.562 217.559C114.191 219.553 117.628 215.47 118.482 214.269C119.336 213.068 118.664 211.251 117.052 212.546Z" fill="#FAFAFA" stroke="#22252A" stroke-width="1.04742" stroke-linecap="round" stroke-linejoin="round"/>
<path d="M117.874 215.251C117.874 215.251 113.765 218.269 114.384 220.264C115.003 222.258 118.461 218.175 119.304 216.974C120.148 215.773 119.486 213.936 117.874 215.251Z" fill="#FAFAFA" stroke="#22252A" stroke-width="1.04742" stroke-linecap="round" stroke-linejoin="round"/>
<path d="M119.825 217.005C119.825 217.005 115.715 220.023 116.345 222.018C116.975 224.012 120.412 219.929 121.265 218.728C122.119 217.527 121.447 215.689 119.825 217.005Z" fill="#FAFAFA" stroke="#22252A" stroke-width="1.04742" stroke-linecap="round" stroke-linejoin="round"/>
<path d="M121.431 218.426C121.431 218.426 117.876 220.661 118.474 222.311C119.072 223.961 122.007 220.838 122.743 219.877C123.48 218.917 122.882 217.371 121.431 218.426Z" fill="#FAFAFA" stroke="#22252A" stroke-width="1.04742" stroke-linecap="round" stroke-linejoin="round"/>
</svg>
