<svg  viewBox="0 0 279 268" fill="none" xmlns="http://www.w3.org/2000/svg">
<rect />
<path d="M163.381 124.857V115.696C163.381 114.083 162.741 112.535 161.602 111.392C160.463 110.25 158.917 109.606 157.304 109.601L148.143 109.573M163.381 143.143V152.286C163.381 153.902 162.739 155.453 161.596 156.596C160.453 157.739 158.902 158.381 157.286 158.381H148.143M129.857 109.573L120.696 109.604C119.083 109.609 117.537 110.253 116.398 111.395C115.259 112.538 114.619 114.086 114.619 115.699V124.857M129.857 158.381H120.714C119.098 158.381 117.547 157.739 116.404 156.596C115.261 155.453 114.619 153.902 114.619 152.286V143.143" stroke="#FAFAFA" stroke-linecap="round" stroke-linejoin="round"/>
<path d="M139 139.5C140.25 139.5 141.313 139.063 142.188 138.188C143.063 137.313 143.5 136.25 143.5 135C143.5 133.75 143.063 132.687 142.188 131.812C141.313 130.937 140.25 130.5 139 130.5C137.75 130.5 136.687 130.937 135.812 131.812C134.937 132.687 134.5 133.75 134.5 135C134.5 136.25 134.937 137.313 135.812 138.188C136.687 139.063 137.75 139.5 139 139.5ZM131 143C130.45 143 129.979 142.804 129.588 142.413C129.196 142.021 129 141.55 129 141V129C129 128.45 129.196 127.979 129.588 127.588C129.979 127.196 130.45 127 131 127H134.15L136 125H142L143.85 127H147C147.55 127 148.021 127.196 148.413 127.588C148.804 127.979 149 128.45 149 129V141C149 141.55 148.804 142.021 148.413 142.413C148.021 142.804 147.55 143 147 143H131Z" fill="#FAFAFA"/>
</svg>
