<?xml version="1.0" encoding="utf-8"?>
<!-- Generated by IcoMoon.io -->
<svg version="1.1" xmlns="http://www.w3.org/2000/svg" xmlns:xlink="http://www.w3.org/1999/xlink" width="572" height="68" viewBox="0 0 572 68">
<svg id="icon-lock" width="31" height="32" viewBox="0 0 31 32" x="0" y="0">
<path fill="none" opacity="0.8" stroke="#fff" stroke-linejoin="round" stroke-linecap="round" stroke-miterlimit="4" stroke-width="2.56" d="M21.76 14.72v-3.84c0-3.535-2.865-6.4-6.4-6.4s-6.4 2.865-6.4 6.4v3.84M9.984 27.52h10.752c2.151 0 3.226 0 4.047-0.419 0.723-0.368 1.31-0.956 1.678-1.678 0.419-0.822 0.419-1.897 0.419-4.047v-0.512c0-2.151 0-3.226-0.419-4.047-0.368-0.723-0.956-1.31-1.678-1.678-0.822-0.419-1.897-0.419-4.047-0.419h-10.752c-2.151 0-3.226 0-4.047 0.419-0.723 0.368-1.31 0.956-1.678 1.678-0.419 0.822-0.419 1.897-0.419 4.047v0.512c0 2.151 0 3.226 0.419 4.047 0.368 0.723 0.956 1.31 1.678 1.678 0.821 0.419 1.897 0.419 4.047 0.419z"></path>
</svg>
<svg id="icon-user" width="31" height="32" viewBox="0 0 31 32" x="36" y="0">
<path fill="none" opacity="0.8" stroke="#fff" stroke-linejoin="round" stroke-linecap="round" stroke-miterlimit="4" stroke-width="2.56" d="M25.6 27.52c0-1.786 0-2.679-0.22-3.406-0.496-1.636-1.777-2.917-3.413-3.413-0.727-0.22-1.62-0.22-3.406-0.22h-6.4c-1.786 0-2.679 0-3.406 0.22-1.636 0.496-2.917 1.777-3.413 3.413-0.22 0.727-0.22 1.62-0.22 3.406M21.12 10.24c0 3.181-2.579 5.76-5.76 5.76s-5.76-2.579-5.76-5.76c0-3.181 2.579-5.76 5.76-5.76s5.76 2.579 5.76 5.76z"></path>
</svg>
<svg id="icon-search-green" width="32" height="32" viewBox="0 0 32 32" x="72" y="0">
<path fill="none" stroke="#8baa36" stroke-linejoin="round" stroke-linecap="round" stroke-miterlimit="4" stroke-width="2.6667" d="M14.667 25.333c5.891 0 10.667-4.776 10.667-10.667s-4.776-10.667-10.667-10.667c-5.891 0-10.667 4.776-10.667 10.667s4.776 10.667 10.667 10.667z"></path>
<path fill="none" stroke="#8baa36" stroke-linejoin="round" stroke-linecap="round" stroke-miterlimit="4" stroke-width="2.6667" d="M28.001 28l-5.8-5.8"></path>
</svg>
<svg id="icon-search-dark" width="32" height="32" viewBox="0 0 32 32" x="108" y="0">
<path fill="none" stroke-linejoin="round" stroke-linecap="round" stroke-miterlimit="4" stroke-width="2.6667" stroke="#000" d="M14.667 25.333c5.891 0 10.667-4.776 10.667-10.667s-4.776-10.667-10.667-10.667c-5.891 0-10.667 4.776-10.667 10.667s4.776 10.667 10.667 10.667z"></path>
<path fill="none" stroke-linejoin="round" stroke-linecap="round" stroke-miterlimit="4" stroke-width="2.6667" stroke="#000" d="M28.001 28l-5.8-5.8"></path>
</svg>
<svg id="icon-instagram-dark" width="30" height="32" viewBox="0 0 30 32" x="144" y="0">
<path d="M21.587 3.301c1.683 0.005 3.295 0.676 4.484 1.865s1.86 2.802 1.865 4.484v12.698c-0.005 1.683-0.676 3.295-1.865 4.484s-2.802 1.86-4.484 1.865h-12.698c-1.682-0.005-3.295-0.676-4.484-1.865s-1.86-2.802-1.865-4.484v-12.698c0.005-1.682 0.676-3.295 1.865-4.484s2.802-1.86 4.484-1.865h12.698zM21.587 0.762h-12.698c-4.889 0-8.889 4-8.889 8.889v12.698c0 4.889 4 8.889 8.889 8.889h12.698c4.889 0 8.889-4 8.889-8.889v-12.698c0-4.889-4-8.889-8.889-8.889z"></path>
<path d="M23.492 9.654c-0.377 0-0.745-0.112-1.058-0.321s-0.557-0.507-0.702-0.855-0.182-0.731-0.108-1.101c0.074-0.369 0.255-0.709 0.521-0.975s0.606-0.448 0.975-0.521c0.369-0.074 0.752-0.036 1.101 0.108s0.645 0.388 0.855 0.702c0.209 0.313 0.321 0.681 0.321 1.058 0.001 0.25-0.048 0.498-0.144 0.73s-0.236 0.442-0.413 0.619c-0.177 0.177-0.387 0.317-0.619 0.413s-0.479 0.144-0.73 0.144zM15.238 10.923c1.005 0 1.987 0.298 2.822 0.856s1.486 1.351 1.871 2.28c0.384 0.928 0.485 1.95 0.289 2.935s-0.68 1.89-1.39 2.601-1.615 1.194-2.601 1.39c-0.985 0.196-2.007 0.095-2.935-0.289s-1.722-1.036-2.28-1.871c-0.558-0.835-0.856-1.817-0.856-2.822 0.001-1.347 0.537-2.638 1.489-3.59s2.243-1.488 3.59-1.489zM15.238 8.383c-1.507 0-2.98 0.447-4.233 1.284s-2.229 2.027-2.806 3.419c-0.577 1.392-0.728 2.924-0.434 4.402s1.020 2.835 2.085 3.901c1.066 1.066 2.423 1.791 3.901 2.085s3.010 0.143 4.402-0.434c1.392-0.577 2.582-1.553 3.419-2.806s1.284-2.726 1.284-4.233c0-2.021-0.803-3.959-2.232-5.388s-3.367-2.232-5.387-2.232z"></path>
</svg>
<svg id="icon-twitter-dark" width="38" height="32" viewBox="0 0 38 32" x="180" y="0">
<path d="M37.647 4.51c-1.412 0.614-2.906 1.018-4.435 1.2 1.607-0.941 2.815-2.436 3.398-4.204-1.519 0.888-3.179 1.512-4.907 1.843-0.728-0.763-1.603-1.369-2.573-1.783s-2.013-0.626-3.067-0.624c-4.268 0-7.722 3.404-7.722 7.6-0.003 0.584 0.064 1.166 0.199 1.733-3.061-0.143-6.058-0.924-8.799-2.292s-5.167-3.293-7.122-5.653c-0.686 1.156-1.049 2.475-1.050 3.82 0 2.635 1.375 4.965 3.451 6.329-1.23-0.029-2.435-0.355-3.512-0.949v0.094c0 3.686 2.667 6.753 6.196 7.451-0.664 0.177-1.348 0.267-2.034 0.267-0.487 0.001-0.974-0.047-1.452-0.141 0.981 3.019 3.837 5.216 7.22 5.278-2.749 2.118-6.123 3.263-9.594 3.255-0.616-0.001-1.231-0.038-1.843-0.11 3.53 2.254 7.634 3.447 11.823 3.435 14.224 0 21.995-11.584 21.995-21.631 0-0.329-0.008-0.659-0.024-0.98 1.508-1.073 2.813-2.406 3.853-3.937z"></path>
</svg>
<svg id="icon-youtube-dark" width="43" height="32" viewBox="0 0 43 32" x="252" y="0">
<path d="M42.393 7.066c0-3.75-2.759-6.766-6.167-6.766-4.617-0.216-9.326-0.299-14.138-0.299h-1.5c-4.801 0-9.518 0.083-14.135 0.3-3.4 0-6.159 3.033-6.159 6.783-0.208 2.966-0.297 5.932-0.292 8.899-0.008 2.967 0.086 5.936 0.283 8.908 0 3.75 2.759 6.791 6.159 6.791 4.851 0.225 9.826 0.325 14.885 0.317 5.067 0.017 10.029-0.089 14.885-0.317 3.409 0 6.167-3.042 6.167-6.791 0.2-2.975 0.292-5.942 0.284-8.916 0.019-2.967-0.072-5.936-0.272-8.908zM17.253 24.157v-16.375l12.085 8.183-12.085 8.191z"></path>
</svg>
<svg id="icon-facebook-dark" width="30" height="32" viewBox="0 0 30 32" x="324" y="0">
<path d="M30.476 16.092c0-8.466-6.823-15.33-15.238-15.33s-15.238 6.864-15.238 15.33c0 7.651 5.571 13.994 12.857 15.145v-10.712h-3.87v-4.433h3.87v-3.377c0-3.841 2.276-5.965 5.756-5.965 1.667 0 3.412 0.3 3.412 0.3v3.773h-1.922c-1.892 0-2.484 1.181-2.484 2.395v2.874h4.226l-0.675 4.433h-3.55v10.713c7.286-1.15 12.857-7.493 12.857-15.146z"></path>
</svg>
<svg id="icon-instagram-white" width="30" height="32" viewBox="0 0 30 32" x="360" y="0">
<path fill="#fff" d="M21.587 3.301c1.683 0.005 3.295 0.676 4.484 1.865s1.86 2.802 1.865 4.484v12.698c-0.005 1.683-0.676 3.295-1.865 4.484s-2.802 1.86-4.484 1.865h-12.698c-1.682-0.005-3.295-0.676-4.484-1.865s-1.86-2.802-1.865-4.484v-12.698c0.005-1.682 0.676-3.295 1.865-4.484s2.802-1.86 4.484-1.865h12.698zM21.587 0.762h-12.698c-4.889 0-8.889 4-8.889 8.889v12.698c0 4.889 4 8.889 8.889 8.889h12.698c4.889 0 8.889-4 8.889-8.889v-12.698c0-4.889-4-8.889-8.889-8.889z"></path>
<path fill="#fff" d="M23.492 9.654c-0.377 0-0.745-0.112-1.058-0.321s-0.557-0.507-0.702-0.855-0.182-0.731-0.108-1.101c0.074-0.369 0.255-0.709 0.521-0.975s0.606-0.448 0.975-0.521c0.369-0.074 0.752-0.036 1.101 0.108s0.645 0.388 0.855 0.702c0.209 0.313 0.321 0.681 0.321 1.058 0.001 0.25-0.048 0.498-0.144 0.73s-0.236 0.442-0.413 0.619c-0.177 0.177-0.387 0.317-0.619 0.413s-0.479 0.144-0.73 0.144zM15.238 10.923c1.005 0 1.987 0.298 2.822 0.856s1.486 1.351 1.871 2.28c0.384 0.928 0.485 1.95 0.289 2.935s-0.68 1.89-1.39 2.601-1.615 1.194-2.601 1.39c-0.985 0.196-2.007 0.095-2.935-0.289s-1.722-1.036-2.28-1.871c-0.558-0.835-0.856-1.817-0.856-2.822 0.001-1.347 0.537-2.638 1.489-3.59s2.243-1.488 3.59-1.489zM15.238 8.383c-1.507 0-2.98 0.447-4.233 1.284s-2.229 2.027-2.806 3.419c-0.577 1.392-0.728 2.924-0.434 4.402s1.020 2.835 2.085 3.901c1.066 1.066 2.423 1.791 3.901 2.085s3.010 0.143 4.402-0.434c1.392-0.577 2.582-1.553 3.419-2.806s1.284-2.726 1.284-4.233c0-2.021-0.803-3.959-2.232-5.388s-3.367-2.232-5.387-2.232z"></path>
</svg>
<svg id="icon-twitter-white" width="38" height="32" viewBox="0 0 38 32" x="396" y="0">
<path fill="#fff" d="M37.647 4.51c-1.412 0.614-2.906 1.018-4.435 1.2 1.607-0.941 2.815-2.436 3.398-4.204-1.519 0.888-3.179 1.512-4.907 1.843-0.728-0.763-1.603-1.369-2.573-1.783s-2.013-0.626-3.067-0.624c-4.268 0-7.722 3.404-7.722 7.6-0.003 0.584 0.064 1.166 0.199 1.733-3.061-0.143-6.058-0.924-8.799-2.292s-5.167-3.293-7.122-5.653c-0.686 1.156-1.049 2.475-1.050 3.82 0 2.635 1.375 4.965 3.451 6.329-1.23-0.029-2.435-0.355-3.512-0.949v0.094c0 3.686 2.667 6.753 6.196 7.451-0.664 0.177-1.348 0.267-2.034 0.267-0.487 0.001-0.974-0.047-1.452-0.141 0.981 3.019 3.837 5.216 7.22 5.278-2.749 2.118-6.123 3.263-9.594 3.255-0.616-0.001-1.231-0.038-1.843-0.11 3.53 2.254 7.634 3.447 11.823 3.435 14.224 0 21.995-11.584 21.995-21.631 0-0.329-0.008-0.659-0.024-0.98 1.508-1.073 2.813-2.406 3.853-3.937z"></path>
</svg>
<svg id="icon-youtube-white" width="43" height="32" viewBox="0 0 43 32" x="468" y="0">
<path fill="#fff" d="M42.393 7.066c0-3.75-2.759-6.766-6.167-6.766-4.617-0.216-9.326-0.299-14.138-0.299h-1.5c-4.801 0-9.518 0.083-14.135 0.3-3.4 0-6.159 3.033-6.159 6.783-0.208 2.966-0.297 5.932-0.292 8.899-0.008 2.967 0.086 5.936 0.283 8.908 0 3.75 2.759 6.791 6.159 6.791 4.851 0.225 9.826 0.325 14.885 0.317 5.067 0.017 10.029-0.089 14.885-0.317 3.409 0 6.167-3.042 6.167-6.791 0.2-2.975 0.292-5.942 0.284-8.916 0.019-2.967-0.072-5.936-0.272-8.908zM17.253 24.157v-16.375l12.085 8.183-12.085 8.191z"></path>
</svg>
<svg id="icon-facebook-white" width="30" height="32" viewBox="0 0 30 32" x="0" y="36">
<path fill="#fff" d="M30.476 16.092c0-8.466-6.823-15.33-15.238-15.33s-15.238 6.864-15.238 15.33c0 7.651 5.571 13.994 12.857 15.145v-10.712h-3.87v-4.433h3.87v-3.377c0-3.841 2.276-5.965 5.756-5.965 1.667 0 3.412 0.3 3.412 0.3v3.773h-1.922c-1.892 0-2.484 1.181-2.484 2.395v2.874h4.226l-0.675 4.433h-3.55v10.713c7.286-1.15 12.857-7.493 12.857-15.146z"></path>
</svg>
<svg id="icon-instagram-green" width="30" height="32" viewBox="0 0 30 32" x="36" y="36">
<path fill="#8baa36" d="M21.587 3.301c1.683 0.005 3.295 0.676 4.484 1.865s1.86 2.802 1.865 4.484v12.698c-0.005 1.683-0.676 3.295-1.865 4.484s-2.802 1.86-4.484 1.865h-12.698c-1.682-0.005-3.295-0.676-4.484-1.865s-1.86-2.802-1.865-4.484v-12.698c0.005-1.682 0.676-3.295 1.865-4.484s2.802-1.86 4.484-1.865h12.698zM21.587 0.762h-12.698c-4.889 0-8.889 4-8.889 8.889v12.698c0 4.889 4 8.889 8.889 8.889h12.698c4.889 0 8.889-4 8.889-8.889v-12.698c0-4.889-4-8.889-8.889-8.889v0z"></path>
<path fill="#8baa36" d="M23.492 9.654c-0.377 0-0.745-0.112-1.058-0.321s-0.557-0.507-0.702-0.855-0.182-0.731-0.108-1.101c0.074-0.369 0.255-0.709 0.521-0.975s0.606-0.448 0.975-0.521c0.369-0.074 0.752-0.036 1.101 0.108s0.645 0.388 0.855 0.702c0.209 0.313 0.321 0.681 0.321 1.058 0.001 0.25-0.048 0.498-0.144 0.73s-0.236 0.442-0.413 0.619c-0.177 0.177-0.387 0.317-0.619 0.413s-0.479 0.144-0.73 0.144zM15.238 10.923c1.005 0 1.987 0.298 2.822 0.856s1.486 1.351 1.871 2.28c0.384 0.928 0.485 1.95 0.289 2.935s-0.68 1.89-1.39 2.601-1.615 1.194-2.601 1.39c-0.985 0.196-2.007 0.095-2.935-0.289s-1.722-1.036-2.28-1.871c-0.558-0.835-0.856-1.817-0.856-2.822 0.001-1.347 0.537-2.638 1.489-3.59s2.243-1.488 3.59-1.489zM15.238 8.383c-1.507 0-2.98 0.447-4.233 1.284s-2.229 2.027-2.806 3.419c-0.577 1.392-0.728 2.924-0.434 4.402s1.020 2.835 2.085 3.901c1.066 1.066 2.423 1.791 3.901 2.085s3.010 0.143 4.402-0.434c1.392-0.577 2.582-1.553 3.419-2.806s1.284-2.726 1.284-4.233c0-2.021-0.803-3.959-2.232-5.388s-3.367-2.232-5.387-2.232z"></path>
</svg>
<svg id="icon-twitter-green" width="38" height="32" viewBox="0 0 38 32" x="72" y="36">
<path fill="#8baa36" d="M37.647 4.51c-1.412 0.614-2.906 1.018-4.435 1.2 1.607-0.941 2.815-2.436 3.398-4.204-1.519 0.888-3.179 1.512-4.907 1.843-0.728-0.763-1.603-1.369-2.573-1.783s-2.013-0.626-3.067-0.624c-4.268 0-7.722 3.404-7.722 7.6-0.003 0.584 0.064 1.166 0.199 1.733-3.061-0.143-6.058-0.924-8.799-2.292s-5.167-3.293-7.122-5.653c-0.686 1.156-1.049 2.475-1.050 3.82 0 2.635 1.375 4.965 3.451 6.329-1.23-0.029-2.435-0.355-3.512-0.949v0.094c0 3.686 2.667 6.753 6.196 7.451-0.664 0.177-1.348 0.267-2.034 0.267-0.487 0.001-0.974-0.047-1.452-0.141 0.981 3.019 3.837 5.216 7.22 5.278-2.749 2.118-6.123 3.263-9.594 3.255-0.616-0.001-1.231-0.038-1.843-0.11 3.53 2.254 7.634 3.447 11.823 3.435 14.224 0 21.995-11.584 21.995-21.631 0-0.329-0.008-0.659-0.024-0.98 1.508-1.073 2.813-2.406 3.853-3.937z"></path>
</svg>
<svg id="icon-youtube-green" width="43" height="32" viewBox="0 0 43 32" x="144" y="36">
<path fill="#8baa36" d="M42.393 7.066c0-3.75-2.759-6.766-6.167-6.766-4.617-0.216-9.326-0.299-14.138-0.299h-1.5c-4.801 0-9.518 0.083-14.135 0.3-3.4 0-6.159 3.033-6.159 6.783-0.208 2.966-0.297 5.932-0.292 8.899-0.008 2.967 0.086 5.936 0.283 8.908 0 3.75 2.759 6.791 6.159 6.791 4.851 0.225 9.826 0.325 14.885 0.317 5.067 0.017 10.029-0.089 14.885-0.317 3.409 0 6.167-3.042 6.167-6.791 0.2-2.975 0.292-5.942 0.284-8.916 0.019-2.967-0.072-5.936-0.272-8.908zM17.253 24.157v-16.375l12.085 8.183-12.085 8.191z"></path>
</svg>
<svg id="icon-facebook-green" width="30" height="32" viewBox="0 0 30 32" x="216" y="36">
<path fill="#8baa36" d="M30.476 16.092c0-8.466-6.823-15.33-15.238-15.33s-15.238 6.864-15.238 15.33c0 7.651 5.571 13.994 12.857 15.145v-10.712h-3.87v-4.433h3.87v-3.377c0-3.841 2.276-5.965 5.756-5.965 1.667 0 3.412 0.3 3.412 0.3v3.773h-1.922c-1.892 0-2.484 1.181-2.484 2.395v2.874h4.226l-0.675 4.433h-3.55v10.713c7.286-1.15 12.857-7.493 12.857-15.146z"></path>
</svg>
<svg id="icon-basket" width="50" height="32" viewBox="0 0 50 32" x="252" y="36">
<path d="M0 0h50.045v32h-50.045v-32z"></path>
</svg>
<svg id="icon-logo-tablet-mobile" width="32" height="32" viewBox="0 0 32 32" x="324" y="36">
<path fill="#8baa36" d="M9.6 0h12.8c5.302 0 9.6 4.298 9.6 9.6v12.8c0 5.302-4.298 9.6-9.6 9.6h-12.8c-5.302 0-9.6-4.298-9.6-9.6v-12.8c0-5.302 4.298-9.6 9.6-9.6z"></path>
<path fill="none" stroke="#fafafa" stroke-linejoin="round" stroke-linecap="round" stroke-miterlimit="4" stroke-width="1.6" d="M7.039 7.117v4.072c0 1.163 0.507 2.192 1.294 2.858 0.385 0.326 0.639 0.766 0.639 1.254v6.797c0 0.756 0.649 1.369 1.449 1.369s1.449-0.613 1.449-1.369v-6.797c0-0.488 0.254-0.928 0.639-1.254 0.787-0.666 1.294-1.696 1.294-2.858v0"></path>
<path fill="none" stroke="#fafafa" stroke-linejoin="round" stroke-linecap="round" stroke-miterlimit="4" stroke-width="1.6" d="M10.42 11.603v-4.563"></path>
<path fill="none" stroke="#fafafa" stroke-linejoin="round" stroke-linecap="round" stroke-miterlimit="4" stroke-width="1.6" d="M23.466 8c0-0.504-0.433-0.913-0.966-0.913h-0.966c-1.601 0-2.899 1.226-2.899 2.738v5.476c0 1.19 0.809 2.193 1.933 2.57v4.227c0 0.756 0.649 1.369 1.449 1.369s1.449-0.613 1.449-1.369v-14.098z"></path>
</svg>
<svg id="icon-logo-desktop" width="32" height="32" viewBox="0 0 32 32" x="360" y="36">
<path fill="#8baa36" d="M8.727 0h14.545c4.82 0 8.727 3.907 8.727 8.727v14.545c0 4.82-3.907 8.727-8.727 8.727h-14.545c-4.82 0-8.727-3.907-8.727-8.727v-14.545c0-4.82 3.907-8.727 8.727-8.727z"></path>
<path fill="none" stroke="#fafafa" stroke-linejoin="round" stroke-linecap="round" stroke-miterlimit="4" stroke-width="1.4545" d="M7.273 7.347v3.966c0 1.132 0.494 2.135 1.26 2.784 0.375 0.317 0.622 0.746 0.622 1.221v6.62c0 0.736 0.633 1.333 1.412 1.333s1.412-0.597 1.412-1.333v-6.62c0-0.476 0.248-0.904 0.622-1.221 0.766-0.649 1.26-1.652 1.26-2.784v0"></path>
<path fill="none" stroke="#fafafa" stroke-linejoin="round" stroke-linecap="round" stroke-miterlimit="4" stroke-width="1.4545" d="M10.567 11.717v-4.444"></path>
<path fill="none" stroke="#fafafa" stroke-linejoin="round" stroke-linecap="round" stroke-miterlimit="4" stroke-width="1.4545" d="M23.273 8.208c0-0.491-0.422-0.889-0.941-0.889h-0.941c-1.559 0-2.823 1.194-2.823 2.667v5.333c0 1.159 0.788 2.136 1.882 2.503v4.117c0 0.736 0.633 1.333 1.412 1.333s1.412-0.597 1.412-1.333v-13.732z"></path>
</svg>
<svg id="icon-switch-dark" width="60" height="32" viewBox="0 0 60 32" x="396" y="36">
<path fill="#8baa36" d="M13.091 1.939h32.97c7.23 0 13.091 5.861 13.091 13.091s-5.861 13.091-13.091 13.091h-32.97c-7.23 0-13.091-5.861-13.091-13.091s5.861-13.091 13.091-13.091z"></path>
<path fill="#000" d="M56.194 15.030c0 5.623-4.635 10.182-10.352 10.182s-10.352-4.559-10.352-10.182c0-5.623 4.635-10.182 10.352-10.182s10.352 4.559 10.352 10.182z"></path>
</svg>
<svg id="icon-switch-light" width="60" height="32" viewBox="0 0 60 32" x="468" y="36">
<path fill="#efefef" d="M14.061 1.939h32.97c7.23 0 13.091 5.861 13.091 13.091s-5.861 13.091-13.091 13.091h-32.97c-7.23 0-13.091-5.861-13.091-13.091s5.861-13.091 13.091-13.091z"></path>
<path fill="#000" d="M24.63 15.030c0 5.623-4.635 10.182-10.351 10.182s-10.351-4.559-10.351-10.182c0-5.623 4.635-10.182 10.351-10.182s10.351 4.559 10.351 10.182z"></path>
</svg>
</svg>
