<svg width="261" height="170" viewBox="0 0 261 170" fill="none" xmlns="http://www.w3.org/2000/svg">
<path d="M213.785 83.261C213.785 83.261 226.508 84.4972 232.953 92.2353C232.953 92.2353 239.769 83.2719 252.004 83.4571C254.994 79.9186 256.898 75.6198 257.494 71.0611C258.09 66.5024 257.353 61.8714 255.37 57.7072C253.387 53.5431 250.24 50.0172 246.293 47.5401C242.347 45.063 237.764 43.7365 233.079 43.7151C228.394 43.6938 223.799 44.9784 219.83 47.4195C215.86 49.8605 212.679 53.3575 210.657 57.5034C208.634 61.6493 207.854 66.2733 208.407 70.8373C208.96 75.4012 210.823 79.7172 213.779 83.2828L213.785 83.261Z" fill="#8BAA36"/>
<path opacity="0.5" d="M213.785 83.261C213.785 83.261 226.508 84.4972 232.953 92.2353C232.953 92.2353 239.769 83.2719 252.004 83.4571C254.994 79.9186 256.898 75.6198 257.494 71.0611C258.09 66.5024 257.353 61.8714 255.37 57.7072C253.387 53.5431 250.24 50.0172 246.293 47.5401C242.347 45.063 237.764 43.7365 233.079 43.7151C228.394 43.6938 223.799 44.9784 219.83 47.4195C215.86 49.8605 212.679 53.3575 210.657 57.5034C208.634 61.6493 207.854 66.2733 208.407 70.8373C208.96 75.4012 210.823 79.7172 213.779 83.2828L213.785 83.261Z" fill="#FAFAFA"/>
<path d="M232.527 45.425L232.1 126.314H234.248L232.527 45.425Z" fill="#B8B8B8"/>
<path d="M233.173 89.8772C233.173 89.8772 237.464 82.2915 245.197 79.9717C245.197 79.9717 237.037 81.8722 232.984 88.4014L233.173 89.8772Z" fill="#B8B8B8"/>
<path d="M233.173 68.3887C233.173 68.3887 237.464 60.8031 245.197 58.4832C245.197 58.4832 237.037 60.3783 232.984 66.913L233.173 68.3887Z" fill="#B8B8B8"/>
<path d="M233.173 79.1219C233.173 79.1219 237.464 71.5362 245.197 69.2164C245.197 69.2164 237.037 71.1169 232.984 77.6462L233.173 79.1219Z" fill="#B8B8B8"/>
<path d="M232.535 73.8618C232.535 73.8618 228.388 66.2816 220.928 63.9618C220.928 63.9618 228.805 65.8568 232.74 72.3915L232.535 73.8618Z" fill="#B8B8B8"/>
<path d="M232.535 84.3988C232.535 84.3988 228.388 76.8131 220.928 74.4988C220.928 74.4988 228.805 76.3938 232.74 82.9231L232.535 84.3988Z" fill="#B8B8B8"/>
<path d="M5.55032 83.2613C5.55032 83.2613 18.2734 84.4975 24.7182 92.2356C24.7182 92.2356 31.5349 83.2722 43.7695 83.4574C46.7594 79.9189 48.6631 75.6201 49.2591 71.0614C49.8551 66.5027 49.1188 61.8717 47.136 57.7076C45.1531 53.5435 42.0052 50.0176 38.0588 47.5404C34.1125 45.0633 29.53 43.7368 24.845 43.7155C20.1599 43.6941 15.5651 44.9787 11.5954 47.4198C7.62577 49.8609 4.44462 53.3579 2.42237 57.5037C0.400119 61.6496 -0.380031 66.2737 0.172753 70.8376C0.725538 75.4016 2.58851 79.7176 5.54477 83.2831L5.55032 83.2613Z" fill="#8BAA36"/>
<path opacity="0.5" d="M5.55032 83.2613C5.55032 83.2613 18.2734 84.4975 24.7182 92.2356C24.7182 92.2356 31.5349 83.2722 43.7695 83.4574C46.7594 79.9189 48.6631 75.6201 49.2591 71.0614C49.8551 66.5027 49.1188 61.8717 47.136 57.7076C45.1531 53.5435 42.0052 50.0176 38.0588 47.5404C34.1125 45.0633 29.53 43.7368 24.845 43.7155C20.1599 43.6941 15.5651 44.9787 11.5954 47.4198C7.62577 49.8609 4.44462 53.3579 2.42237 57.5037C0.400119 61.6496 -0.380031 66.2737 0.172753 70.8376C0.725538 75.4016 2.58851 79.7176 5.54477 83.2831L5.55032 83.2613Z" fill="#FAFAFA"/>
<path d="M24.3002 45.4252L23.8672 126.314H26.0155L24.3002 45.4252Z" fill="#B8B8B8"/>
<path d="M24.9505 89.8777C24.9505 89.8777 29.2414 82.292 36.9741 79.9722C36.9741 79.9722 28.814 81.8727 24.7617 88.4019L24.9505 89.8777Z" fill="#B8B8B8"/>
<path d="M24.9505 68.3892C24.9505 68.3892 29.2414 60.8035 36.9741 58.4837C36.9741 58.4837 28.814 60.3788 24.7617 66.9134L24.9505 68.3892Z" fill="#B8B8B8"/>
<path d="M24.9505 79.1223C24.9505 79.1223 29.2414 71.5367 36.9741 69.2169C36.9741 69.2169 28.814 71.1174 24.7617 77.6466L24.9505 79.1223Z" fill="#B8B8B8"/>
<path d="M24.3026 73.8623C24.3026 73.8623 20.156 66.282 12.6953 63.9622C12.6953 63.9622 20.5723 65.8573 24.508 72.392L24.3026 73.8623Z" fill="#B8B8B8"/>
<path d="M24.3026 84.3993C24.3026 84.3993 20.156 76.8136 12.6953 74.4992C12.6953 74.4992 20.5723 76.3943 24.508 82.9235L24.3026 84.3993Z" fill="#B8B8B8"/>
<path d="M162.092 91.1027C162.092 91.1027 172.506 92.1102 177.779 98.4434C177.779 98.4434 183.358 91.1082 193.372 91.2552C195.818 88.3587 197.375 84.8402 197.862 81.1094C198.348 77.3785 197.745 73.5888 196.121 70.1814C194.497 66.774 191.92 63.8892 188.69 61.8627C185.46 59.8363 181.71 58.7515 177.876 58.7348C174.042 58.7182 170.282 59.7702 167.033 61.7685C163.785 63.7668 161.182 66.6291 159.528 70.0222C157.874 73.4153 157.236 77.1996 157.689 80.9345C158.142 84.6695 159.667 88.2014 162.086 91.1191L162.092 91.1027Z" fill="#8BAA36"/>
<path opacity="0.5" d="M162.092 91.1027C162.092 91.1027 172.506 92.1102 177.779 98.4434C177.779 98.4434 183.358 91.1082 193.372 91.2552C195.818 88.3587 197.375 84.8402 197.862 81.1094C198.348 77.3785 197.745 73.5888 196.121 70.1814C194.497 66.774 191.92 63.8892 188.69 61.8627C185.46 59.8363 181.71 58.7515 177.876 58.7348C174.042 58.7182 170.282 59.7702 167.033 61.7685C163.785 63.7668 161.182 66.6291 159.528 70.0222C157.874 73.4153 157.236 77.1996 157.689 80.9345C158.142 84.6695 159.667 88.2014 162.086 91.1191L162.092 91.1027Z" fill="#FAFAFA"/>
<path d="M177.432 60.1063L177.082 126.313H178.842L177.432 60.1063Z" fill="#B8B8B8"/>
<path d="M177.962 96.4933C177.962 96.4933 181.482 90.2854 187.804 88.3849C187.804 88.3849 181.143 89.9369 177.812 95.2844L177.962 96.4933Z" fill="#B8B8B8"/>
<path d="M177.962 78.9045C177.962 78.9045 181.482 72.6966 187.804 70.8015C187.804 70.8015 181.143 72.3535 177.812 77.6956L177.962 78.9045Z" fill="#B8B8B8"/>
<path d="M177.962 87.6987C177.962 87.6987 181.482 81.4908 187.804 79.5903C187.804 79.5903 181.143 81.1423 177.812 86.4898L177.962 87.6987Z" fill="#B8B8B8"/>
<path d="M177.439 83.3862C177.439 83.3862 174.048 77.1783 167.941 75.2832C167.941 75.2832 174.386 76.8352 177.611 82.1773L177.439 83.3862Z" fill="#B8B8B8"/>
<path d="M177.439 92.0063C177.439 92.0063 174.048 85.7983 167.941 83.9033C167.941 83.9033 174.386 85.4552 177.611 90.8028L177.439 92.0063Z" fill="#B8B8B8"/>
<path d="M61.3339 91.1028C61.3339 91.1028 71.7478 92.1103 77.0213 98.4435C77.0213 98.4435 82.5723 91.1083 92.6142 91.2553C95.0602 88.3588 96.6171 84.8403 97.1038 81.1095C97.5904 77.3786 96.9868 73.5889 95.3632 70.1815C93.7395 66.7742 91.1627 63.8893 87.9326 61.8628C84.7025 59.8364 80.9521 58.7517 77.118 58.735C73.2839 58.7183 69.5239 59.7703 66.2756 61.7686C63.0274 63.7669 60.4245 66.6292 58.7701 70.0223C57.1157 73.4154 56.4779 77.1997 56.9308 80.9347C57.3837 84.6696 58.9087 88.2015 61.3284 91.1192L61.3339 91.1028Z" fill="#8BAA36"/>
<path opacity="0.5" d="M61.3339 91.1028C61.3339 91.1028 71.7478 92.1103 77.0213 98.4435C77.0213 98.4435 82.5723 91.1083 92.6142 91.2553C95.0602 88.3588 96.6171 84.8403 97.1038 81.1095C97.5904 77.3786 96.9868 73.5889 95.3632 70.1815C93.7395 66.7742 91.1627 63.8893 87.9326 61.8628C84.7025 59.8364 80.9521 58.7517 77.118 58.735C73.2839 58.7183 69.5239 59.7703 66.2756 61.7686C63.0274 63.7669 60.4245 66.6292 58.7701 70.0223C57.1157 73.4154 56.4779 77.1997 56.9308 80.9347C57.3837 84.6696 58.9087 88.2015 61.3284 91.1192L61.3339 91.1028Z" fill="#FAFAFA"/>
<path d="M76.6798 60.1066L76.3301 126.314H78.0898L76.6798 60.1066Z" fill="#B8B8B8"/>
<path d="M77.2339 96.4937C77.2339 96.4937 80.7532 90.2858 87.0759 88.3853C87.0759 88.3853 80.4146 89.9372 77.084 95.2848L77.2339 96.4937Z" fill="#B8B8B8"/>
<path d="M77.2339 78.9048C77.2339 78.9048 80.7532 72.6969 87.0759 70.8018C87.0759 70.8018 80.4146 72.3538 77.084 77.6959L77.2339 78.9048Z" fill="#B8B8B8"/>
<path d="M77.2339 87.699C77.2339 87.699 80.7532 81.491 87.0759 79.5905C87.0759 79.5905 80.4146 81.1425 77.084 86.49L77.2339 87.699Z" fill="#B8B8B8"/>
<path d="M76.6798 83.3863C76.6798 83.3863 73.2937 77.1784 67.1875 75.3105C67.1875 75.3105 73.6323 76.8625 76.8575 82.2046L76.6798 83.3863Z" fill="#B8B8B8"/>
<path d="M76.6795 92.0066C76.6795 92.0066 73.2878 85.7986 67.1816 83.9036C67.1816 83.9036 73.6264 85.4556 76.8516 90.8031L76.6795 92.0066Z" fill="#B8B8B8"/>
<path d="M9.37891 126.602H248.93" stroke="#22252A" stroke-width="1.04742" stroke-miterlimit="10"/>
<path opacity="0.3" d="M74.787 152.882C74.787 154.516 64.5563 155.817 51.9277 155.817C39.299 155.817 29.0684 154.505 29.0684 152.882C29.0684 151.259 39.3045 149.947 51.9277 149.947C64.5508 149.947 74.787 151.265 74.787 152.882Z" fill="black"/>
<path opacity="0.3" d="M122.642 152.882C122.642 154.515 112.406 155.817 99.7831 155.817C87.16 155.817 76.9238 154.505 76.9238 152.882C76.9238 151.259 87.16 149.947 99.7831 149.947C112.406 149.947 122.642 151.264 122.642 152.882Z" fill="black"/>
<path opacity="0.3" d="M186.037 152.882C186.037 154.515 175.807 155.817 163.184 155.817C150.56 155.817 140.324 154.505 140.324 152.882C140.324 151.259 150.555 149.947 163.184 149.947C175.812 149.947 186.037 151.264 186.037 152.882Z" fill="black"/>
<path opacity="0.3" d="M238.995 152.882C238.995 154.515 228.759 155.817 216.135 155.817C203.512 155.817 193.254 154.505 193.254 152.882C193.254 151.259 203.49 149.947 216.113 149.947C228.736 149.947 238.995 151.264 238.995 152.882Z" fill="black"/>
<path d="M165.656 67.017C165.656 67.017 164.717 70.8289 164.717 71.4714C164.717 71.8689 164.672 72.2651 164.584 72.6531C164.584 72.6531 162.58 75.0111 162.847 75.6645C163.171 76.1726 163.634 76.5804 164.184 76.8408C164.184 76.8408 165.25 80.6527 166.322 80.9032C167.422 81.1048 168.535 81.2358 169.652 81.2952L170.052 84.4373L175.392 83.6532L174.06 78.9373L174.615 74.8749C174.615 74.8749 175.548 73.1759 174.615 70.4259C173.682 67.6759 171.678 67.5452 170.341 67.5452C168.771 67.4476 167.207 67.2713 165.656 67.017Z" fill="#FAFAFA" stroke="#22252A" stroke-width="1.04742" stroke-linecap="round" stroke-linejoin="round"/>
<path d="M168.053 65.0562C168.053 65.0562 163.379 64.9201 163.513 66.1018C163.646 67.2835 168.453 68.8246 168.453 68.8246C168.453 68.8246 166.849 69.8701 167.648 70.9211C168.447 71.9721 170.318 72.887 170.318 72.887C170.318 72.887 169.763 75.1142 170.59 75.2449C171.417 75.3756 171.922 74.1939 172.056 73.8018C172.189 73.4097 173.66 73.5404 174.06 74.586C174.286 75.1293 174.421 75.7049 174.459 76.2904C174.459 76.2904 176.064 71.5746 176.33 69.478C176.596 67.3815 170.59 65.0562 168.053 65.0562Z" fill="#22252A" stroke="#22252A" stroke-width="1.04742" stroke-linecap="round" stroke-linejoin="round"/>
<path d="M171.016 75.3102C171.016 75.3102 172.631 71.8251 173.597 73.5404C174.563 75.2558 174.152 77.0419 173.203 77.2325C172.254 77.4231 171.46 77.6083 171.46 77.6083" fill="#FAFAFA"/>
<path d="M171.016 75.3102C171.016 75.3102 172.631 71.8251 173.597 73.5404C174.563 75.2558 174.152 77.0419 173.203 77.2325C172.254 77.4231 171.46 77.6083 171.46 77.6083" stroke="#22252A" stroke-width="1.04742" stroke-linecap="round" stroke-linejoin="round"/>
<path d="M164.45 111.681C164.189 111.981 159.909 120.982 159.376 123.994C158.843 127.005 155.374 144.954 155.235 145.738C155.096 146.522 147.763 148.096 147.225 148.227C146.686 148.357 147.78 149.8 149.362 150.192C150.944 150.584 155.507 152.42 156.578 151.369C157.65 150.318 159.115 144.425 159.515 143.772C159.915 143.119 167.431 125.747 167.431 125.747C167.431 125.747 171.283 117.41 172.083 116.62C172.882 115.831 171.133 112.34 170.462 111.289C169.79 110.238 166.32 109.585 164.45 111.681Z" fill="#22252A" stroke="#22252A" stroke-width="1.04742" stroke-linecap="round" stroke-linejoin="round"/>
<path d="M163.652 111.795C163.652 111.795 165.522 120.574 166.455 123.716C167.328 126.355 168.641 128.833 170.341 131.051C171.412 132.494 176.619 145.209 176.619 145.209L177.418 147.175C177.418 147.175 177.152 147.959 175.686 149.005C174.221 150.05 170.074 151.755 171.145 152.152C172.217 152.55 176.486 152.545 178.49 152.414C180.215 152.294 181.832 151.546 183.025 150.317C183.83 149.397 181.693 146.778 181.693 146.255C181.693 145.732 177.019 129.755 176.752 128.965C176.486 128.176 175.148 122.55 175.148 122.55V116.152C175.148 116.152 175.819 114.976 175.819 112.34C175.819 109.704 173.816 109.192 173.816 109.192L162.863 110.243L163.652 111.795Z" fill="#22252A" stroke="#22252A" stroke-width="1.04742" stroke-linecap="round" stroke-linejoin="round"/>
<path d="M162.719 111.028C162.719 111.028 162.991 113.255 163.79 113.386C164.589 113.516 172.866 115.743 176.474 113.124C176.474 113.124 177.14 111.158 176.741 110.636C176.341 110.113 175.403 110.374 170.601 110.374C165.8 110.374 162.719 110.374 162.719 111.028Z" fill="#8BAA36" stroke="#22252A" stroke-width="1.04742" stroke-linecap="round" stroke-linejoin="round"/>
<path d="M174.992 81.6871C174.992 81.6871 170.051 82.3405 167.914 84.4099C165.777 86.4792 163.912 90.3074 162.979 93.8416C162.047 97.3758 161.375 110.347 162.707 111.001C164.04 111.654 175.258 112.313 177.14 111.545C179.022 110.777 177.007 104.602 177.007 102.244C177.007 99.8862 179.144 91.8975 178.744 87.4485C178.345 82.9994 174.992 81.6871 174.992 81.6871Z" fill="#8BAA36" stroke="#22252A" stroke-width="1.04742" stroke-linecap="round" stroke-linejoin="round"/>
<path d="M157.168 95.3011C157.107 89.9099 154.864 85.3084 151.883 83.3208V82.2317L143.668 82.3134C139.044 82.3624 135.341 88.3035 135.435 95.5461C135.53 102.789 139.321 108.654 143.951 108.615L152.166 108.534V107.445C155.053 105.337 157.196 100.692 157.168 95.3011Z" fill="#22252A" stroke="#22252A" stroke-width="1.04742" stroke-linecap="round" stroke-linejoin="round"/>
<path d="M160.855 95.2628C160.794 89.5995 158.568 84.7638 155.437 82.6618V81.5019L151.917 81.54C147.055 81.589 143.186 87.8133 143.269 95.4425C143.352 103.072 147.354 109.214 152.217 109.165L155.737 109.127V107.973C158.795 105.805 160.916 100.904 160.855 95.2628Z" fill="#FAFAFA" stroke="#22252A" stroke-width="1.04742" stroke-linecap="round" stroke-linejoin="round"/>
<path d="M164.383 95.2247C164.466 102.849 160.592 109.078 155.734 109.127C150.877 109.176 146.853 103.034 146.786 95.4099C146.719 87.7861 150.577 81.5563 155.435 81.5019C160.292 81.4474 164.289 87.5955 164.383 95.2247Z" fill="#737373" stroke="#22252A" stroke-width="1.04742" stroke-linecap="round" stroke-linejoin="round"/>
<path d="M162.367 94.9905C162.406 98.6009 160.569 101.552 158.265 101.58C155.961 101.607 154.063 98.688 154.024 95.045C153.985 91.4019 155.823 88.5103 158.126 88.4558C160.43 88.4014 162.328 91.3746 162.367 94.9905Z" fill="#22252A" stroke="#22252A" stroke-width="1.04742" stroke-linecap="round" stroke-linejoin="round"/>
<path d="M227.782 122.142C228.241 118.785 228.436 115.399 228.365 112.013C226.561 112.83 216.036 113.13 215.07 113.151C214.105 113.173 203.58 112.83 201.776 112.013C201.696 115.398 201.882 118.785 202.331 122.142C203.058 126.558 209.453 144.24 209.597 145.095C209.784 145.92 210.027 146.731 210.324 147.524C210.324 147.524 206.688 150.089 205.09 151.085C203.491 152.082 204.657 152.512 206.255 152.512C207.854 152.512 211.196 152.082 212.212 152.082C213.111 152.082 214.676 151.314 215.043 151.129C215.409 151.314 216.975 152.082 217.868 152.082C218.89 152.082 222.231 152.512 223.83 152.512C225.429 152.512 226.606 152.082 224.996 151.085C223.386 150.089 219.761 147.524 219.761 147.524C220.058 146.731 220.301 145.92 220.488 145.095C220.66 144.224 227.055 126.542 227.782 122.142Z" fill="#22252A" stroke="#22252A" stroke-width="1.04742" stroke-linecap="round" stroke-linejoin="round"/>
<path d="M212.87 84.2897C212.87 84.2897 207.247 86.0922 204.343 87.9001C201.44 89.708 198.526 99.4991 198.526 99.8803C198.359 100.563 198.132 101.229 197.849 101.873C197.849 101.873 194.94 101.209 194.363 103.583C193.785 105.958 197.266 109.002 199.109 109.1C200.952 109.198 201.529 108.626 201.529 108.626C201.529 108.626 200.369 110.908 200.852 111.855C201.335 112.803 205.409 116.326 213.453 116.212C221.496 116.097 227.33 114.785 228.18 113.647C229.029 112.509 229.151 110.129 229.151 110.129C229.151 110.129 232.154 109.367 233.22 107.466C234.286 105.566 234.092 103.567 233.509 101.574C232.926 99.5808 229.923 93.7922 227.891 90.5575C225.859 87.3229 221.591 85.5204 219.565 84.9486C217.538 84.3768 214.224 84.2897 212.87 84.2897Z" fill="#8BAA36" stroke="#22252A" stroke-width="1.04742" stroke-linecap="round" stroke-linejoin="round"/>
<path d="M214.575 92.2947C215.38 92.0333 217.906 89.8333 218.877 87.6333C219.262 86.7911 219.532 85.9032 219.682 84.9922L219.555 84.9541C217.523 84.3823 214.226 84.2897 212.893 84.2897C212.893 84.2897 211.716 84.6655 210.162 85.2482C210.172 86.4253 210.397 87.5911 210.828 88.6898C211.705 90.8898 213.793 92.5616 214.575 92.2947Z" fill="#FAFAFA" stroke="#22252A" stroke-width="1.04742" stroke-linecap="round" stroke-linejoin="round"/>
<path d="M223.814 96.7383C223.814 96.7383 226.14 108.909 228.777 110.162" stroke="#22252A" stroke-width="1.04742" stroke-linecap="round" stroke-linejoin="round"/>
<path d="M201.529 108.626C201.529 108.626 204.438 97.882 204.632 96.8365" stroke="#22252A" stroke-width="1.04742" stroke-linecap="round" stroke-linejoin="round"/>
<path d="M227.573 102.238C227.573 102.238 225.963 102.592 225.963 103.736" stroke="#22252A" stroke-width="1.04742" stroke-linecap="round" stroke-linejoin="round"/>
<path d="M200.225 102.413C200.225 102.413 202.018 103.556 201.84 105.315" stroke="#22252A" stroke-width="1.04742" stroke-linecap="round" stroke-linejoin="round"/>
<path d="M212.237 152.092C213.137 152.092 214.702 151.324 215.068 151.139C215.435 151.324 217 152.092 217.894 152.092C218.915 152.092 222.257 152.522 223.856 152.522C225.454 152.522 226.631 152.092 225.021 151.096C223.628 150.23 220.708 148.182 219.964 147.659C218.249 149.195 214.857 148.814 214.857 148.814C214.17 148.712 213.49 148.57 212.82 148.389C211.804 148.1 210.35 147.534 210.35 147.534C210.35 147.534 206.714 150.099 205.115 151.096C203.517 152.092 204.682 152.522 206.281 152.522C207.88 152.522 211.221 152.092 212.237 152.092Z" fill="#8BAA36" stroke="#22252A" stroke-width="1.04742" stroke-linecap="round" stroke-linejoin="round"/>
<path d="M214.852 147.556V122.691" stroke="#FAFAFA" stroke-width="1.04742" stroke-linecap="round" stroke-linejoin="round"/>
<path d="M215.062 151.111L214.852 148.786V147.556" stroke="#22252A" stroke-width="1.04742" stroke-linecap="round" stroke-linejoin="round"/>
<path d="M212.816 121.837H217.03" stroke="#FAFAFA" stroke-width="1.04742" stroke-linecap="round" stroke-linejoin="round"/>
<path d="M207.309 70.0224C207.309 70.0224 204.289 71.7976 204.739 73.3551C205.189 74.9125 206.554 75.212 206.254 76.0779C205.955 76.9437 204.906 77.4883 206.099 78.0328C206.779 78.3314 207.49 78.556 208.22 78.7026C208.22 78.7026 209.33 82.4818 211.239 83.1462C213.149 83.8106 216.457 83.3695 218.8 83.0754C219.591 82.9994 220.34 82.6888 220.947 82.1849C221.554 81.681 221.99 81.0077 222.197 80.2546C222.425 79.4432 221.215 80.4071 220.61 79.514C220.004 78.6209 220.915 76.3284 221.592 74.3244C222.269 72.3204 220.232 68.5412 217.59 67.2833C214.947 66.0253 209.901 66.6842 207.309 70.0224Z" fill="#22252A" stroke="#22252A" stroke-width="1.04742" stroke-linecap="round" stroke-linejoin="round"/>
<path d="M212.388 82.9339C212.004 84.1769 211.743 85.4535 211.611 86.7458C211.511 88.3795 212.871 90.1711 214.325 90.073C215.779 89.975 217.034 87.127 217.228 85.7166C217.423 84.3062 216.745 80.4888 216.745 80.4888C216.745 80.4888 214.525 80.5869 213.642 81.3438C213.124 81.7899 212.698 82.3298 212.388 82.9339Z" fill="#FAFAFA" stroke="#22252A" stroke-width="1.04742" stroke-linecap="round" stroke-linejoin="round"/>
<path d="M210.418 72.0973C210.418 72.0973 210.49 74.3191 212.76 76.4537C214.125 77.7484 215.743 78.758 217.517 79.4216C217.478 79.9082 217.35 80.384 217.14 80.8265C217.041 81.0116 216.887 81.1627 216.699 81.26C216.511 81.3573 216.297 81.396 216.085 81.3711H215.325C215.325 81.3711 214.214 83.9251 212.871 84.2954C211.528 84.6657 208.225 84.4097 207.77 81.1478C207.314 77.8859 207.242 75.2176 207.62 74.5478C207.997 73.878 210.418 72.0973 210.418 72.0973Z" fill="#FAFAFA" stroke="#22252A" stroke-width="1.04742" stroke-linecap="round" stroke-linejoin="round"/>
<path d="M234.166 100.795C234.51 100.114 234.719 99.3748 234.782 98.6169C234.782 97.6259 232.905 96.2046 232.561 95.8506C232.217 95.4966 231.873 95.5348 231.801 96.0303C231.8 96.3085 231.857 96.5839 231.969 96.8396C232.08 97.0953 232.244 97.3258 232.45 97.5169C232.732 97.7345 232.936 98.0338 233.033 98.3719C233.066 98.617 232.411 99.8204 232.739 100.599C233.066 101.378 233.988 101.612 234.166 100.795Z" fill="#FAFAFA" stroke="#22252A" stroke-width="1.04742" stroke-linecap="round" stroke-linejoin="round"/>
<path d="M158.992 95.2355C158.992 95.2355 167.163 97.8004 172.076 103.791C176.989 109.781 180.214 108.92 186.32 106.927C192.426 104.934 194.752 97.8004 203.184 103.791C211.616 109.781 213.359 112.057 220.337 108.637C227.315 105.217 231.09 96.9454 237.49 99.7935C243.89 102.642 240.976 117.219 241.559 124.299C242.142 131.378 241.265 149.114 242.719 151.396C244.173 153.677 259 151.94 259 151.94" stroke="#22252A" stroke-width="3.14226" stroke-linecap="round" stroke-linejoin="round"/>
<path d="M174.296 85.7168C174.296 85.7168 172.669 83.1139 170.271 83.7945C167.734 84.5134 166.424 88.0693 165.83 90.2857C165.236 92.502 164.837 94.8981 163.749 96.9619C163.749 96.9619 158.941 96.8802 156.26 96.1179C154.214 95.4922 152.202 94.7652 150.232 93.9396C150.232 93.9396 149.282 92.6382 148.611 92.3822C147.939 92.1263 146.196 91.6253 146.068 92.0173C145.941 92.4094 148.089 93.7 148.089 93.7C148.089 93.7 144.092 94.2446 143.693 94.6639C143.293 95.0832 146.518 96.3357 146.518 96.3357C146.518 96.3357 147.723 96.7169 150.654 96.0307C150.654 96.0307 161.406 102.729 163.549 103.497C165.691 104.264 166.879 104.509 168.339 101.743C169.799 98.9768 174.645 92.1154 175.417 89.3545" fill="#8BAA36"/>
<path d="M174.296 85.7168C174.296 85.7168 172.669 83.1139 170.271 83.7945C167.734 84.5134 166.424 88.0693 165.83 90.2857C165.236 92.502 164.837 94.8981 163.749 96.9619C163.749 96.9619 158.941 96.8802 156.26 96.1179C154.214 95.4922 152.202 94.7652 150.232 93.9396C150.232 93.9396 149.282 92.6382 148.611 92.3822C147.939 92.1263 146.196 91.6253 146.068 92.0173C145.941 92.4094 148.089 93.7 148.089 93.7C148.089 93.7 144.092 94.2446 143.693 94.6639C143.293 95.0832 146.518 96.3357 146.518 96.3357C146.518 96.3357 147.723 96.7169 150.654 96.0307C150.654 96.0307 161.406 102.729 163.549 103.497C165.691 104.264 166.879 104.509 168.339 101.743C169.799 98.9768 174.645 92.1154 175.417 89.3545" stroke="#22252A" stroke-width="1.04742" stroke-linecap="round" stroke-linejoin="round"/>
<path d="M153.025 95.0504C151.454 94.4731 150.249 93.9613 150.249 93.9613C150.249 93.9613 149.3 92.6598 148.628 92.4038C147.957 92.1479 146.214 91.6469 146.086 92.039C145.958 92.431 148.107 93.7216 148.107 93.7216C148.107 93.7216 144.11 94.2662 143.71 94.6855C143.31 95.1048 146.536 96.3573 146.536 96.3573C146.536 96.3573 147.74 96.7385 150.671 96.0523L152.175 96.9835L153.025 95.0504Z" fill="#FAFAFA" stroke="#22252A" stroke-width="1.04742" stroke-linecap="round" stroke-linejoin="round"/>
<path d="M194.466 101.797C194.121 101.116 193.912 100.377 193.85 99.619C193.85 98.6279 195.731 97.2121 196.07 96.8581C196.409 96.5042 196.753 96.5423 196.825 97.0378C196.826 97.316 196.769 97.5914 196.657 97.8471C196.545 98.1028 196.382 98.3333 196.176 98.5245C195.894 98.742 195.69 99.0413 195.593 99.3794C195.559 99.619 196.214 100.828 195.887 101.607C195.559 102.385 194.643 102.609 194.466 101.797Z" fill="#FAFAFA" stroke="#22252A" stroke-width="1.04742" stroke-linecap="round" stroke-linejoin="round"/>
<path d="M195.76 98.8077C195.76 98.8077 194.212 101.612 195.111 102.62C196.01 103.627 196.882 100.354 197.048 99.4503C197.215 98.5463 196.332 97.6369 195.76 98.8077Z" fill="#FAFAFA" stroke="#22252A" stroke-width="1.04742" stroke-linecap="round" stroke-linejoin="round"/>
<path d="M197.036 99.8151C197.036 99.8151 195.487 102.62 196.386 103.627C197.285 104.634 198.157 101.362 198.324 100.458C198.49 99.5537 197.607 98.6116 197.036 99.8151Z" fill="#FAFAFA" stroke="#22252A" stroke-width="1.04742" stroke-linecap="round" stroke-linejoin="round"/>
<path d="M198.442 100.049C198.442 100.049 196.893 102.854 197.792 103.861C198.692 104.869 199.563 101.596 199.73 100.692C199.896 99.7879 199.014 98.8731 198.442 100.049Z" fill="#FAFAFA" stroke="#22252A" stroke-width="1.04742" stroke-linecap="round" stroke-linejoin="round"/>
<path d="M200.24 100.071C200.24 100.071 198.797 102.249 199.585 103.071C200.373 103.894 201.223 101.307 201.389 100.561C201.556 99.8148 200.773 99.0906 200.24 100.071Z" fill="#FAFAFA" stroke="#22252A" stroke-width="1.04742" stroke-linecap="round" stroke-linejoin="round"/>
<path d="M233.138 98.917C233.138 98.917 234.687 101.721 233.788 102.729C232.889 103.736 232.017 100.458 231.851 99.5541C231.684 98.6501 232.567 97.7407 233.138 98.917Z" fill="#FAFAFA" stroke="#22252A" stroke-width="1.04742" stroke-linecap="round" stroke-linejoin="round"/>
<path d="M231.861 99.8969C231.861 99.8969 233.41 102.701 232.511 103.709C231.611 104.716 230.74 101.438 230.573 100.534C230.407 99.63 231.289 98.7261 231.861 99.8969Z" fill="#FAFAFA" stroke="#22252A" stroke-width="1.04742" stroke-linecap="round" stroke-linejoin="round"/>
<path d="M230.446 100.158C230.446 100.158 231.995 102.963 231.096 103.97C230.196 104.978 229.325 101.705 229.164 100.795C229.003 99.886 229.891 98.982 230.446 100.158Z" fill="#FAFAFA" stroke="#22252A" stroke-width="1.04742" stroke-linecap="round" stroke-linejoin="round"/>
<path d="M228.653 100.18C228.653 100.18 230.097 102.385 229.308 103.18C228.52 103.975 227.671 101.416 227.51 100.67C227.349 99.9238 228.121 99.1996 228.653 100.18Z" fill="#FAFAFA" stroke="#22252A" stroke-width="1.04742" stroke-linecap="round" stroke-linejoin="round"/>
<path d="M37.6717 131.209V134.302C36.5775 135.475 35.7907 136.892 35.3791 138.429C34.7074 140.956 32.6035 151.831 33.1586 152.114C33.7138 152.397 38.9373 153.568 40.6026 153.323C42.5122 153.04 44.1387 153.138 43.1783 152.103C42.218 151.069 37.1721 148.177 37.1721 148.177C37.1721 148.177 42.7231 140.303 43.9555 137.395C45.1878 134.487 45.3877 129.989 45.3877 129.989L37.9381 129.711L37.6717 131.209Z" fill="#FAFAFA" stroke="#22252A" stroke-width="1.04742" stroke-linecap="round" stroke-linejoin="round"/>
<path d="M40.6032 153.323C42.5128 153.04 44.1392 153.138 43.1789 152.103C42.2185 151.069 37.1726 148.177 37.1726 148.177L36.9839 149.299L33.3479 148.863C33.0815 150.682 32.9649 152.016 33.1592 152.13C33.7532 152.392 38.9379 153.568 40.6032 153.323Z" fill="#22252A" stroke="#22252A" stroke-width="1.04742" stroke-linecap="round" stroke-linejoin="round"/>
<path d="M55.919 132.81L56.7794 134.313C56.4228 134.987 56.2129 135.727 56.1632 136.486C56.1135 137.244 56.2251 138.004 56.4908 138.718C57.3512 141.343 59.3607 150.998 59.3607 151.559C59.3607 152.12 60.5986 152.495 61.5811 152.495C62.5636 152.495 65.2837 152.68 65.6667 152.68C66.0497 152.68 68.8197 153.149 69.7745 152.588C70.7293 152.027 68.5588 150.9 67.1266 150.246C65.6944 149.593 62.5414 147.905 62.5414 147.905C62.5414 147.905 63.3019 140.216 63.3019 136.839C63.3019 133.463 64.068 132.341 63.0188 130.277C61.9697 128.213 55.375 131.219 55.375 131.219L55.919 132.81Z" fill="#FAFAFA" stroke="#22252A" stroke-width="1.04742" stroke-linecap="round" stroke-linejoin="round"/>
<path d="M67.0985 150.246C65.6663 149.587 62.5133 147.905 62.5133 147.905L62.1303 149.31L59.0605 149.854C59.2437 150.791 59.3603 151.433 59.3603 151.564C59.3603 152.109 60.5982 152.501 61.5807 152.501C62.5633 152.501 65.2833 152.686 65.6663 152.686C66.0493 152.686 68.8193 153.154 69.7741 152.593C70.7289 152.032 68.5307 150.9 67.0985 150.246Z" fill="#22252A" stroke="#22252A" stroke-width="1.04742" stroke-linecap="round" stroke-linejoin="round"/>
<path d="M50.7729 70.4093C50.0238 69.1534 49.1678 67.9621 48.2139 66.8479C46.8983 65.3939 42.7738 65.4756 40.9642 67.3924C39.1545 69.3093 39.7263 72.7291 40.4091 73.6984C41.0919 74.6677 42.4685 79.1984 42.4685 79.1984L42.796 82.4331L50.4621 85.1014L48.8967 79.8464C48.8967 79.8464 51.8665 79.3019 52.1107 78.3925C52.355 77.4831 51.6167 74.4281 51.6167 74.4281C51.6167 74.4281 52.6048 73.7801 52.5215 73.2137C52.4382 72.6474 50.7729 70.4093 50.7729 70.4093Z" fill="#FAFAFA" stroke="#22252A" stroke-width="1.04742" stroke-linecap="round" stroke-linejoin="round"/>
<path d="M41.9522 73.8957C41.9522 73.8957 43.2622 74.9848 43.9783 73.7378C44.6944 72.4907 45.2384 71.2709 45.2384 70.2145C45.2384 69.1581 42.5462 68.2813 44.3391 67.5734C46.1321 66.8655 47.4255 68.4392 48.2249 66.86C49.0243 65.2808 48.2971 65.112 43.9894 65.112C39.6818 65.112 37.528 67.2249 38.4384 69.866C39.1665 71.8164 40.0673 73.7005 41.1306 75.4967L41.9522 73.8957Z" fill="#22252A" stroke="#22252A" stroke-width="1.04742" stroke-linecap="round" stroke-linejoin="round"/>
<path d="M51.0134 72.2775C51.0134 72.6771 50.8926 73.0677 50.6663 73.3999C50.4401 73.7322 50.1184 73.9911 49.7421 74.144C49.3658 74.2969 48.9517 74.3369 48.5522 74.259C48.1527 74.181 47.7857 73.9886 47.4977 73.7061C47.2097 73.4235 47.0136 73.0635 46.9341 72.6716C46.8546 72.2797 46.8954 71.8735 47.0513 71.5044C47.2072 71.1352 47.4711 70.8197 47.8098 70.5977C48.1485 70.3757 48.5467 70.2572 48.954 70.2572C49.5002 70.2572 50.024 70.4701 50.4102 70.8489C50.7964 71.2278 51.0134 71.7417 51.0134 72.2775Z" stroke="#22252A" stroke-width="1.04742" stroke-linecap="round" stroke-linejoin="round"/>
<path d="M50.7207 70.4858C50.9603 70.3896 51.2167 70.3396 51.4756 70.3388C51.9045 70.3396 52.3209 70.4799 52.6597 70.7378C52.9985 70.9956 53.2405 71.3565 53.3478 71.7638C53.4551 72.1711 53.4216 72.6018 53.2526 72.9884C53.0836 73.3751 52.7885 73.6957 52.4138 73.9002" stroke="#22252A" stroke-width="1.04742" stroke-linecap="round" stroke-linejoin="round"/>
<path d="M46.8991 72.2775L41.9531 73.8949" stroke="#22252A" stroke-width="1.04742" stroke-linecap="round" stroke-linejoin="round"/>
<path d="M43.3781 74.9455C43.3781 74.9455 42.39 72.9252 41.4019 73.3119C40.4138 73.6985 40.9078 76.8733 41.8959 77.1946C42.228 77.2679 42.5731 77.2622 42.9024 77.1778C43.2317 77.0935 43.5357 76.9331 43.7888 76.7099C43.7888 76.7099 44.6159 78.4089 45.604 78.8881" fill="#FAFAFA"/>
<path d="M43.3781 74.9455C43.3781 74.9455 42.39 72.9252 41.4019 73.3119C40.4138 73.6985 40.9078 76.8733 41.8959 77.1946C42.228 77.2679 42.5731 77.2622 42.9024 77.1778C43.2317 77.0935 43.5357 76.9331 43.7888 76.7099C43.7888 76.7099 44.6159 78.4089 45.604 78.8881" stroke="#22252A" stroke-width="1.04742" stroke-linecap="round" stroke-linejoin="round"/>
<path d="M36.8888 111.251L36.2726 118.995L34.4297 130.458C34.4297 130.458 38.7373 133.774 42.7563 133.774C46.7753 133.774 47.8799 133.273 47.8799 133.273L50.1337 121.511L52.3874 133.878C52.3874 133.878 56.8283 133.175 59.7703 132.467C61.8161 131.909 63.7549 131.026 65.5101 129.853L59.5649 114.671L58.2771 106.84C58.2771 106.84 51.6158 107.445 47.6135 107.646C43.6112 107.848 38.2877 106.84 38.2877 106.84L36.8888 111.251Z" fill="#8BAA36" stroke="#22252A" stroke-width="1.04742" stroke-linecap="round" stroke-linejoin="round"/>
<path d="M41.1164 80.3098C41.1164 80.3098 50.5533 83.539 53.4676 86.6756C55.0774 88.4182 56.8815 100.344 57.531 103.257C58.1804 106.171 59.3128 111.97 59.3128 111.97C59.3128 111.97 53.5564 114.519 49.1044 114.611C44.6525 114.704 36.1094 112.7 36.1094 112.7C36.1094 112.7 37.1252 99.7777 37.1252 93.7712C37.1252 87.7647 37.2196 83.8439 38.2354 81.9326C38.241 81.9489 39.9119 80.1246 41.1164 80.3098Z" fill="#22252A" stroke="#22252A" stroke-width="1.04742" stroke-linecap="round" stroke-linejoin="round"/>
<path d="M38.6281 113.636C38.6281 113.636 39.1388 122.082 38.6281 125.202C38.2695 127.216 37.6502 129.176 36.7852 131.035" stroke="#22252A" stroke-width="1.04742" stroke-linecap="round" stroke-linejoin="round"/>
<path d="M38.8418 117.66C39.6126 117.401 40.3013 116.949 40.8404 116.349C41.3795 115.75 41.7506 115.023 41.9171 114.241" stroke="#22252A" stroke-width="1.04742" stroke-linecap="round" stroke-linejoin="round"/>
<path d="M34.9395 128.824C34.9395 128.824 40.0686 133.148 48.0622 131.547" stroke="#22252A" stroke-width="1.04742" stroke-linecap="round" stroke-linejoin="round"/>
<path d="M52.1641 131.334C52.1641 131.334 60.5684 130.43 64.2599 128.017" stroke="#22252A" stroke-width="1.04742" stroke-linecap="round" stroke-linejoin="round"/>
<path d="M89.7577 76.3998C89.7577 76.3998 88.9472 76.9879 86.1217 79.0137C83.2962 81.0394 85.5222 84.0998 85.5222 84.0998C85.5222 84.0998 83.5016 84.4102 80.8038 87.1929C78.106 89.9756 82.0084 94.7514 85.6554 95.4974C89.3025 96.2434 93.5657 91.8162 94.8425 87.7102C96.1192 83.6043 94.4317 77.4126 93.5824 76.1329C92.733 74.8532 89.7577 76.3998 89.7577 76.3998Z" fill="#22252A" stroke="#22252A" stroke-width="1.04742" stroke-linecap="round" stroke-linejoin="round"/>
<path d="M100.456 75.8551C100.456 75.8551 101.861 73.7259 100.59 70.6382C99.3184 67.5506 95.5214 66.1402 91.8244 68.3783C90.5922 69.0976 89.6364 70.1957 89.1055 71.5023C88.5745 72.809 88.498 74.251 88.8879 75.6046C89.2487 77.0313 91.0695 79.2259 91.4525 79.2586C91.8355 79.2912 95.1606 80.4784 97.431 79.4383C99.7014 78.3982 100.456 75.8551 100.456 75.8551Z" fill="#22252A" stroke="#22252A" stroke-width="1.04742" stroke-linecap="round" stroke-linejoin="round"/>
<path d="M84.125 147.736C84.125 147.736 86.7618 151.76 91.3414 152.446C95.921 153.132 91.8021 149.103 91.0305 148.493C90.2589 147.883 84.7467 146.565 84.125 147.736Z" fill="#737373" stroke="#22252A" stroke-width="1.04742" stroke-linecap="round" stroke-linejoin="round"/>
<path d="M108.521 148.77C108.521 148.77 113.555 149.985 113.167 151.052C112.778 152.119 108.676 152.038 106.278 151.428C103.88 150.818 101.626 149.909 101.937 148.923C102.248 147.937 108.521 148.77 108.521 148.77Z" fill="#737373" stroke="#22252A" stroke-width="1.04742" stroke-linecap="round" stroke-linejoin="round"/>
<path d="M94.2068 83.86C94.2068 83.86 87.4678 84.8294 86.2354 87.1655C85.0031 89.5017 86.7406 102.228 86.7406 102.228C86.7406 102.228 83.8651 108.452 83.8263 112.46C83.7874 116.468 85.6082 123.52 85.4638 125.279C85.3195 127.038 83.4766 147.061 83.4766 147.606C83.4766 148.15 87.3623 149.37 92.9633 150.024C98.5644 150.677 109.278 148.722 109.278 148.722C109.278 148.722 109.067 136.905 109.628 129.859C110.188 122.812 109.389 116.479 107.962 113.849C106.536 111.219 99.8911 101.749 99.8911 101.749C99.8911 101.749 103.111 96.02 103.311 93.515C103.51 91.0101 102.472 89.7031 100.041 86.8224C99.3184 85.9727 98.4301 85.2729 97.4283 84.7642C96.4265 84.2556 95.3313 83.9482 94.2068 83.86Z" fill="#8BAA36" stroke="#22252A" stroke-width="1.04742" stroke-linecap="round" stroke-linejoin="round"/>
<path d="M99.9018 101.754C99.9018 101.754 103.121 96.0251 103.321 93.5201C103.521 91.0152 102.483 89.7082 100.052 86.8275C99.9351 86.6859 99.8129 86.5607 99.6908 86.43L99.602 86.5117C97.104 90.5142 88.844 97.3538 86.3849 99.3469C86.5736 101.051 86.7346 102.228 86.7346 102.228C86.7346 102.228 83.8592 108.452 83.8203 112.46C83.8663 114.286 84.0519 116.106 84.3754 117.905C90.2096 114.638 98.0144 108.523 102.239 105.114C100.918 103.197 99.9018 101.754 99.9018 101.754Z" fill="#737373" stroke="#22252A" stroke-width="1.04742" stroke-linecap="round" stroke-linejoin="round"/>
<path d="M92.9629 79.1876C93.1491 80.6821 93.251 82.1855 93.2682 83.691C93.1794 84.8074 93.5458 87.3559 95.4886 88.1564C97.4315 88.9569 98.6527 87.8406 98.6472 86.7188C98.5767 85.7923 98.3903 84.8778 98.0921 83.996L98.1476 80.9193C98.1476 80.9193 94.7947 78.8608 92.9629 79.1876Z" fill="#FAFAFA" stroke="#22252A" stroke-width="1.04742" stroke-linecap="round" stroke-linejoin="round"/>
<path d="M91.22 77.1892C91.22 77.1892 89.7933 75.9585 89.7489 77.7338C89.7045 79.509 91.3698 80.0972 91.7362 80.217C92.0455 80.2582 92.3591 80.1822 92.6133 80.0046C92.6133 80.0046 95.2001 82.1828 97.2762 82.3244C99.3523 82.466 100.196 81.5239 100.685 77.8264C101.173 74.1288 97.2817 70.3768 97.2817 70.3768C97.2817 70.3768 93.9511 76.3996 91.22 77.1892Z" fill="#FAFAFA" stroke="#22252A" stroke-width="1.04742" stroke-linecap="round" stroke-linejoin="round"/>
<path d="M59.4728 111.894C59.4539 111.263 59.5594 110.634 59.7836 110.042C60.1278 109.301 62.004 108.877 62.4204 108.735C62.8367 108.594 63.0477 108.735 62.9255 109.122C62.8284 109.33 62.6893 109.516 62.5166 109.669C62.3439 109.823 62.1412 109.941 61.9208 110.015C61.6337 110.082 61.3754 110.237 61.1825 110.456C61.077 110.63 61.1436 111.747 60.6274 112.22C60.1111 112.694 59.3007 112.563 59.4728 111.894Z" fill="#FAFAFA" stroke="#22252A" stroke-width="1.04742" stroke-linecap="round" stroke-linejoin="round"/>
<path d="M102.013 95.5188C102.013 95.5188 95.3512 94.6638 92.4147 99.2272C89.4782 103.791 83.9882 119.757 73.8131 122.327C63.638 124.898 60.7292 104.357 54.623 104.929C48.8055 105.473 44.7421 104.929 41.2505 111.202C39.3853 114.562 30.0595 151.249 25.652 151.624C11.6133 152.828 2.57617 152.044 2.57617 152.044" stroke="#22252A" stroke-width="3.14226" stroke-linecap="round" stroke-linejoin="round"/>
<path d="M41.5528 80.5711C41.5528 80.5711 40.0152 79.9666 37.9613 81.1701C35.9074 82.3735 30.3785 95.5518 30.7893 96.9622C31.2001 98.3726 37.0398 100.986 40.3205 101.89C43.6012 102.794 49.5464 103.905 49.5464 103.905C49.5464 103.905 51.3893 106.721 52.0055 106.819C52.9016 106.807 53.7943 106.706 54.67 106.519C54.67 106.519 55.7802 107.423 56.2076 106.416C56.6351 105.408 55.7969 104.107 54.8754 103.099C53.9539 102.092 50.057 101.591 50.057 101.591L39.4934 94.4464L43.9342 86.4032" fill="#22252A"/>
<path d="M41.5528 80.5711C41.5528 80.5711 40.0152 79.9666 37.9613 81.1701C35.9074 82.3735 30.3785 95.5518 30.7893 96.9622C31.2001 98.3726 37.0398 100.986 40.3205 101.89C43.6012 102.794 49.5464 103.905 49.5464 103.905C49.5464 103.905 51.3893 106.721 52.0055 106.819C52.9016 106.807 53.7943 106.706 54.67 106.519C54.67 106.519 55.7802 107.423 56.2076 106.416C56.6351 105.408 55.7969 104.107 54.8754 103.099C53.9539 102.092 50.057 101.591 50.057 101.591L39.4934 94.4464L43.9342 86.4032" stroke="#22252A" stroke-width="1.04742" stroke-linecap="round" stroke-linejoin="round"/>
<path d="M52.005 106.813C52.9011 106.801 53.7938 106.701 54.6695 106.514C54.6695 106.514 55.7797 107.418 56.2071 106.41C56.6346 105.403 55.7964 104.101 54.8749 103.094C53.9534 102.086 50.0565 101.585 50.0565 101.585L39.4929 94.4463L41.0694 91.5656C37.1226 89.1532 34.5024 89.3329 33.0869 89.8175C31.6714 93.1502 30.5945 96.3087 30.7832 96.9567C31.194 98.3671 37.0337 100.981 40.3144 101.885C43.5951 102.789 49.5403 103.9 49.5403 103.9C49.5403 103.9 51.3888 106.715 52.005 106.813Z" fill="#FAFAFA" stroke="#22252A" stroke-width="1.04742" stroke-linecap="round" stroke-linejoin="round"/>
<path d="M118.026 95.7419C117.577 90.988 115.251 87.0835 112.475 85.5315L112.387 84.5622L105.137 85.2211C101.057 85.5914 98.2424 91.086 98.8475 97.49C99.4525 103.894 103.249 108.779 107.33 108.381L114.579 107.722L114.485 106.753C116.927 104.749 118.476 100.496 118.026 95.7419Z" fill="#22252A" stroke="#22252A" stroke-width="1.04742" stroke-linecap="round" stroke-linejoin="round"/>
<path d="M121.313 95.4593C120.841 90.4657 118.537 86.3543 115.601 84.7206L115.501 83.7023L112.398 83.9855C108.112 84.3776 105.154 90.1444 105.786 96.8752C106.419 103.606 110.416 108.741 114.701 108.349L117.804 108.066L117.71 107.047C120.275 104.902 121.785 100.437 121.313 95.4593Z" fill="#FAFAFA" stroke="#22252A" stroke-width="1.04742" stroke-linecap="round" stroke-linejoin="round"/>
<path d="M124.419 95.1591C125.058 101.89 122.099 107.657 117.808 108.049C113.517 108.441 109.526 103.3 108.876 96.575C108.227 89.8497 111.197 84.0502 115.482 83.6853C119.767 83.3204 123.775 88.4338 124.419 95.1591Z" fill="#FAFAFA" stroke="#22252A" stroke-width="1.04742" stroke-linecap="round" stroke-linejoin="round"/>
<path d="M127.751 91.2278L115.711 92.3169C115.542 92.3327 115.372 92.3156 115.21 92.2665C115.048 92.2175 114.897 92.1376 114.767 92.0314C114.636 91.9251 114.528 91.7946 114.449 91.6474C114.37 91.5001 114.322 91.3391 114.307 91.1734C114.291 91.0078 114.308 90.8407 114.358 90.6817C114.408 90.5227 114.489 90.375 114.598 90.2469C114.706 90.1189 114.839 90.0132 114.989 89.9357C115.139 89.8583 115.303 89.8107 115.472 89.7956L127.513 88.7065C127.681 88.6908 127.852 88.7079 128.014 88.7569C128.176 88.8059 128.326 88.8859 128.457 88.9921C128.587 89.0984 128.695 89.2289 128.774 89.3761C128.853 89.5233 128.902 89.6844 128.917 89.8501C128.933 90.0157 128.916 90.1828 128.866 90.3418C128.816 90.5008 128.734 90.6485 128.626 90.7765C128.518 90.9045 128.385 91.0103 128.234 91.0877C128.084 91.1652 127.92 91.2128 127.751 91.2278Z" fill="#737373" stroke="#22252A" stroke-width="1.04742" stroke-linecap="round" stroke-linejoin="round"/>
<path d="M128.642 100.588L116.602 101.678C116.433 101.693 116.262 101.676 116.1 101.627C115.938 101.578 115.788 101.498 115.657 101.392C115.527 101.286 115.419 101.155 115.34 101.008C115.261 100.861 115.213 100.7 115.197 100.534C115.181 100.368 115.199 100.201 115.249 100.042C115.299 99.8833 115.38 99.7356 115.488 99.6076C115.597 99.4796 115.73 99.3738 115.88 99.2964C116.03 99.2189 116.194 99.1713 116.363 99.1563L128.403 98.0672C128.744 98.0383 129.082 98.1422 129.345 98.3562C129.607 98.5703 129.774 98.8773 129.808 99.2108C129.824 99.3764 129.806 99.5435 129.756 99.7024C129.706 99.8614 129.625 100.009 129.516 100.137C129.408 100.265 129.275 100.371 129.125 100.448C128.975 100.526 128.811 100.573 128.642 100.588Z" fill="#737373" stroke="#22252A" stroke-width="1.04742" stroke-linecap="round" stroke-linejoin="round"/>
<path d="M90.0432 84.7476C90.0432 84.7476 87.1456 85.2922 85.7745 86.9258C84.4033 88.5595 81.5889 101.166 82.2384 102.615C82.8879 104.063 93.2962 105.882 96.5102 106.143C99.0947 106.244 101.683 106.131 104.248 105.806C104.248 105.806 107.024 105.735 107.784 105.61C108.545 105.484 109.944 104.749 109.966 104.471C109.988 104.194 109.849 103.529 108.811 103.448C107.773 103.366 105.547 102.636 105.264 102.615C105.931 102.442 106.608 102.308 107.29 102.212C107.29 102.212 107.435 101.667 106.291 101.667C105.148 101.667 104.11 101.591 103.677 102.212C103.367 102.695 103.103 103.206 102.888 103.736C102.888 103.736 96.4769 104.177 92.9964 102.511C89.5159 100.845 88.4168 100.289 88.4168 100.289L90.9147 90.4872" fill="#8BAA36"/>
<path d="M90.0432 84.7476C90.0432 84.7476 87.1456 85.2922 85.7745 86.9258C84.4033 88.5595 81.5889 101.166 82.2384 102.615C82.8879 104.063 93.2962 105.882 96.5102 106.143C99.0947 106.244 101.683 106.131 104.248 105.806C104.248 105.806 107.024 105.735 107.784 105.61C108.545 105.484 109.944 104.749 109.966 104.471C109.988 104.194 109.849 103.529 108.811 103.448C107.773 103.366 105.547 102.636 105.264 102.615C105.931 102.442 106.608 102.308 107.29 102.212C107.29 102.212 107.435 101.667 106.291 101.667C105.148 101.667 104.11 101.591 103.677 102.212C103.367 102.695 103.103 103.206 102.888 103.736C102.888 103.736 96.4769 104.177 92.9964 102.511C89.5159 100.845 88.4168 100.289 88.4168 100.289L90.9147 90.4872" stroke="#22252A" stroke-width="1.04742" stroke-linecap="round" stroke-linejoin="round"/>
<path d="M107.769 105.626C108.541 105.501 109.928 104.765 109.951 104.488C109.973 104.21 109.834 103.546 108.796 103.464C107.758 103.382 105.532 102.653 105.249 102.631C105.916 102.459 106.592 102.324 107.275 102.228C107.275 102.228 107.419 101.683 106.276 101.683C105.132 101.683 104.094 101.607 103.661 102.228C103.352 102.711 103.088 103.222 102.873 103.753C102.873 103.753 96.4615 104.194 92.9809 102.527C89.5004 100.861 88.4013 100.306 88.4013 100.306L89.9223 94.3154C87.9424 93.5161 85.853 93.0078 83.7217 92.807C82.6837 96.913 81.8344 101.749 82.223 102.609C82.8669 104.058 93.2807 105.876 96.4948 106.138C99.0793 106.238 101.668 106.125 104.233 105.8C104.233 105.8 107.014 105.751 107.769 105.626Z" fill="#FAFAFA" stroke="#22252A" stroke-width="1.04742" stroke-linecap="round" stroke-linejoin="round"/>
<path d="M60.8786 110.837C60.8786 110.837 58.7358 112.411 59.0634 113.451C59.3909 114.491 61.1783 112.362 61.6224 111.736C62.0665 111.109 61.7168 110.162 60.8786 110.837Z" fill="#FAFAFA" stroke="#22252A" stroke-width="1.04742" stroke-linecap="round" stroke-linejoin="round"/>
<path d="M61.3033 112.247C61.3033 112.247 59.1662 113.821 59.4881 114.861C59.8101 115.901 61.6086 113.772 62.0472 113.146C62.4857 112.52 62.1415 111.561 61.3033 112.247Z" fill="#FAFAFA" stroke="#22252A" stroke-width="1.04742" stroke-linecap="round" stroke-linejoin="round"/>
<path d="M62.3184 113.162C62.3184 113.162 60.1812 114.736 60.5087 115.776C60.8363 116.816 62.6237 114.687 63.0678 114.061C63.5119 113.434 63.1622 112.476 62.3184 113.162Z" fill="#FAFAFA" stroke="#22252A" stroke-width="1.04742" stroke-linecap="round" stroke-linejoin="round"/>
<path d="M63.1549 113.903C63.1549 113.903 61.3064 115.068 61.6173 115.929C61.9281 116.789 63.4547 115.161 63.8377 114.66C64.2207 114.159 63.9099 113.353 63.1549 113.903Z" fill="#FAFAFA" stroke="#22252A" stroke-width="1.04742" stroke-linecap="round" stroke-linejoin="round"/>
</svg>
