<!-- Generated by IcoMoon.io -->
<svg version="1.1" xmlns="http://www.w3.org/2000/svg" width="27" height="32" viewBox="0 0 27 32">
<title>icon-person</title>
<path fill="none"  stroke-linejoin="round" stroke-linecap="round" stroke-miterlimit="4" stroke-width="3.0476" d="M25.905 29.714c0-2.127 0-3.19-0.262-4.055-0.591-1.948-2.116-3.473-4.064-4.064-0.865-0.262-1.928-0.262-4.055-0.262h-7.619c-2.127 0-3.19 0-4.055 0.262-1.948 0.591-3.473 2.116-4.063 4.064-0.262 0.865-0.262 1.928-0.262 4.055M20.571 9.143c0 3.787-3.070 6.857-6.857 6.857s-6.857-3.070-6.857-6.857c0-3.787 3.070-6.857 6.857-6.857s6.857 3.070 6.857 6.857z"></path>
</svg>
