<!-- Generated by IcoMoon.io -->
<svg version="1.1" xmlns="http://www.w3.org/2000/svg" width="30" height="32" viewBox="0 0 30 32">
<title>icon-pass</title>
<path fill="none"  stroke-linejoin="round" stroke-linecap="round" stroke-miterlimit="4" stroke-width="3.0476" d="M22.857 14.476v-4.571c0-4.208-3.411-7.619-7.619-7.619s-7.619 3.411-7.619 7.619v4.571M8.838 29.714h12.8c2.56 0 3.84 0 4.818-0.498 0.86-0.438 1.559-1.138 1.998-1.998 0.498-0.978 0.498-2.258 0.498-4.818v-0.61c0-2.56 0-3.84-0.498-4.818-0.438-0.86-1.138-1.559-1.998-1.998-0.978-0.498-2.258-0.498-4.818-0.498h-12.8c-2.56 0-3.84 0-4.818 0.498-0.86 0.438-1.559 1.138-1.998 1.998-0.498 0.978-0.498 2.258-0.498 4.818v0.61c0 2.56 0 3.84 0.498 4.818 0.438 0.86 1.138 1.559 1.998 1.998 0.978 0.498 2.258 0.498 4.818 0.498z"></path>
</svg>
