<!-- Generated by IcoMoon.io -->
<svg version="1.1" xmlns="http://www.w3.org/2000/svg" width="37" height="32" viewBox="0 0 37 32">
<title>icon-mail</title>
<path fill="none"  stroke-linejoin="round" stroke-linecap="round" stroke-miterlimit="4" stroke-width="3.3684" d="M1.684 7.579l13.751 9.626c1.114 0.78 1.67 1.169 2.276 1.32 0.535 0.133 1.094 0.133 1.629 0 0.606-0.151 1.162-0.541 2.276-1.32l13.751-9.626M9.768 29.474h17.516c2.83 0 4.245 0 5.325-0.551 0.951-0.484 1.724-1.257 2.208-2.208 0.551-1.081 0.551-2.496 0.551-5.325v-10.779c0-2.83 0-4.245-0.551-5.325-0.484-0.951-1.257-1.724-2.208-2.208-1.081-0.551-2.496-0.551-5.325-0.551h-17.516c-2.83 0-4.245 0-5.325 0.551-0.951 0.484-1.724 1.257-2.208 2.208-0.551 1.081-0.551 2.496-0.551 5.325v10.779c0 2.83 0 4.245 0.551 5.325 0.484 0.951 1.257 1.724 2.208 2.208 1.081 0.551 2.496 0.551 5.325 0.551z"></path>
</svg>
